<svg xmlns="http://www.w3.org/2000/svg" viewBox="0 0 108.73 72.63"><defs><style>.cls-1,.cls-2{fill:#fff;}.cls-2{fill-rule:evenodd;}.cls-3{fill:#12100c;}</style></defs><g id="Capa_2" data-name="Capa 2"><g id="Capa_1-2" data-name="Capa 1"><path class="cls-1" d="M24.62,57H21.78v1.72h2.84a.57.57,0,0,0,.39-.1h0a.63.63,0,0,0,.11-.41v-.68a.62.62,0,0,0-.1-.38v0A.59.59,0,0,0,24.62,57Z"/><path class="cls-1" d="M65.66,58.65a.27.27,0,0,0,.16-.08.34.34,0,0,0,.09-.22.79.79,0,0,0,0-.17v-.72a.78.78,0,0,0,0-.24.27.27,0,0,0-.08-.16A.64.64,0,0,0,65.4,57H62.56v1.73H65.4A1,1,0,0,0,65.66,58.65Z"/><path class="cls-1" d="M102.1,51.5H6.63a1.75,1.75,0,0,0-1.74,1.74v9.7a1.75,1.75,0,0,0,1.74,1.74H102.1a1.75,1.75,0,0,0,1.74-1.74v-9.7A1.75,1.75,0,0,0,102.1,51.5ZM84.51,55.78l1-1.63h.84L85,55.78ZM26,58.37a1,1,0,0,1-.24.73,1.16,1.16,0,0,1-.8.22H21.78v1.93H21V56.31h4a1.16,1.16,0,0,1,.8.22,1,1,0,0,1,.12.2,1.17,1.17,0,0,1,.12.54Zm20.31,2.88h-4.8V56.31h4.76V57H42.31v1.38h2.41V59H42.31v1.57h4Zm21,0H66l-2-1.93H62.56v1.93h-.82V56.31h4a1.16,1.16,0,0,1,.8.22.77.77,0,0,1,.19.3,1.42,1.42,0,0,1,.06.44h0v1.1h0a.94.94,0,0,1-.25.73,1.16,1.16,0,0,1-.8.22H65l2.25,1.93Zm20.51-4.94v3.77h0c0,.05,0,.07,0,.12a1.51,1.51,0,0,1,0,.45.81.81,0,0,1-.18.36,1.29,1.29,0,0,1-.91.24H83.68a1.24,1.24,0,0,1-.91-.25,1.31,1.31,0,0,1-.25-.92h0V56.31h.83v4.25H87V56.31h.81Z"/><polygon class="cls-2" points="12.98 13.35 18.83 10.16 18.83 49.32 12.98 49.32 12.98 13.35"/><polygon class="cls-1" points="46.4 21.87 44.12 24.9 41.84 21.87 38.46 21.87 42.6 27.39 42.6 30.04 45.64 30.04 45.64 27.39 49.78 21.87 46.4 21.87"/><rect class="cls-1" x="23.48" y="21.87" width="3.04" height="8.17"/><rect class="cls-1" x="23.48" y="31.32" width="9.34" height="18"/><path class="cls-2" d="M31.73,39.73a.59.59,0,1,1-.59.59.58.58,0,0,1,.59-.59"/><polygon class="cls-1" points="34.69 21.87 34.69 26.25 31.19 21.87 27.68 21.87 27.68 30.04 30.72 30.04 30.72 25.66 34.22 30.04 37.72 30.04 37.72 21.87 34.69 21.87"/><path class="cls-2" d="M50.31,36.34h3.57v3.57H50.31ZM45.9,40.76h3.57v3.57H45.9Zm4.41,0h3.57v3.57H50.31ZM45.9,36.34h3.57v3.57H45.9Z"/><polygon class="cls-1" points="41.05 36.34 41.05 39.01 37.18 39.01 37.18 36.34 34.22 36.34 34.22 44.3 37.18 44.3 37.18 41.63 41.05 41.63 41.05 44.3 44.01 44.3 44.01 36.34 41.05 36.34"/><path class="cls-1" d="M60.67,44.42a5.47,5.47,0,0,0,3.67-1.09,3.75,3.75,0,0,0,1.23-3v-4h-3v4c0,1.06-.65,1.59-1.94,1.59s-1.93-.53-1.93-1.59v-4h-3v4a3.75,3.75,0,0,0,1.23,3,5.42,5.42,0,0,0,3.66,1.09"/><path class="cls-1" d="M71.14,41.29a6,6,0,0,1,1.56.17.32.32,0,0,1,.25.32c0,.13-.09.22-.26.27a8.09,8.09,0,0,1-1.55.09A6.24,6.24,0,0,1,69.56,42a.48.48,0,0,1-.35-.51h-3a2.36,2.36,0,0,0,1,2.15,7.29,7.29,0,0,0,3.86.76A8,8,0,0,0,75,43.73a2,2,0,0,0,1-1.9,2,2,0,0,0-.9-1.86,9.35,9.35,0,0,0-4-.73,14.08,14.08,0,0,1-1.55-.11c-.16-.05-.25-.14-.25-.27s.09-.22.25-.27a8.09,8.09,0,0,1,1.55-.09,5.54,5.54,0,0,1,1.45.12.49.49,0,0,1,.36.51h3a2.42,2.42,0,0,0-1-2.16,7,7,0,0,0-3.79-.75,8.42,8.42,0,0,0-3.86.65,2,2,0,0,0-1,1.87,1.92,1.92,0,0,0,.89,1.84,9.29,9.29,0,0,0,4,.71"/><polygon class="cls-1" points="76.83 36.34 76.83 44.3 85.25 44.3 85.25 42.03 79.79 42.03 79.79 41.34 85.13 41.34 85.13 39.3 79.79 39.3 79.79 38.61 85.25 38.61 85.25 36.34 76.83 36.34"/><rect class="cls-1" x="70.77" y="11.88" width="0.57" height="6.72"/><path class="cls-2" d="M71.14,22.7a2.87,2.87,0,0,1,2.64,3.06,2.67,2.67,0,1,1-5.28,0,2.87,2.87,0,0,1,2.64-3.06"/><path class="cls-1" d="M72.31,18.6c0,.21-.59.39-1.32.39s-1.32-.18-1.32-.39.59-.39,1.32-.39,1.32.17,1.32.39"/><polygon class="cls-1" points="76.8 26.12 65.48 26.12 71.05 19.29 76.8 26.12"/><path class="cls-1" d="M72,20.32V19.07c0-.38-.4-.68-.93-.68s-.92.3-.92.68v1.25Z"/><path class="cls-1" d="M3,36l-.09-.21.12.09.38-.52-.08-.17.14,0,.66-.6-.08-.29.17.19a1,1,0,0,1,.28-.2v-.15l.1.09a3.57,3.57,0,0,1,.81-.46l0-.2.07.1a1.89,1.89,0,0,1,.54-.12h.18l.07-.16,0,.12h.22l-.1,0h0a1.4,1.4,0,0,0-.68.64l.11,0-.18.11,0,.08a4.76,4.76,0,0,0-.36.93l.16,0-.15.1h.08s-.24.12-.13.81l.09,0-.11.2.09,0a5.12,5.12,0,0,0,.38,1.55c.23-.91.43-1.07.43-1.07L6.14,37l.11,0,.22-.63-.1,0,.21-.11.14-.3-.13-.11.22.08L7.25,35l-.12-.21.2.15,0-.06c0,.1,0,.2.07.27l.06,0a5.7,5.7,0,0,1,.27,1.41l.1,0s0,.09,0,.15h0A9.31,9.31,0,0,1,8,38.14H8c0,.06,0,.13,0,.21A10.68,10.68,0,0,1,7.85,40l.08,0,0,.32-.13,1.35h.08v0h0v.1A2.91,2.91,0,0,1,7.58,43h.18a3.28,3.28,0,0,1-.26,1.1l.14,0c0,.05,0,.12,0,.19h0a5.93,5.93,0,0,1-.41,1.35l.13,0-.44,1.65h0l0,.1-.12.45a1.7,1.7,0,0,0-.27-.51,1.38,1.38,0,0,1,.13.79s-.08-.48-.42-.55c.23.12.35.79.35.79-.12-.4-.84-.59-.84-.59s.79.59.77.94A.71.71,0,0,0,6,48.33a1.24,1.24,0,0,1,.36.68c-.08-.19-.47-.73-1-.56a.93.93,0,0,1,.79.69,2.69,2.69,0,0,0-.83.08,14.23,14.23,0,0,0,2.32.1,14,14,0,0,0,2.31-.1,3.41,3.41,0,0,0-1-.09,2.49,2.49,0,0,1,.36-.29,1.06,1.06,0,0,0-.69.21,2.25,2.25,0,0,1,.6-.72,1.15,1.15,0,0,0-.76.33s0-.1,0-.16a2.37,2.37,0,0,1,.26-.58,1,1,0,0,0-.23.13c0-.16,0-.33,0-.47h0V47.3c0-.3.09-.92.11-1.37h0a4.3,4.3,0,0,0,0-1.48h0l0-.11.18,0a4.53,4.53,0,0,0-.06-1.19h0l.22,0s0-.87-.1-1.34h0v-.07a.09.09,0,0,0,0,0v0L9,41.59s0-.83-.06-1.36h0s0-.09,0-.13V40h0a7.25,7.25,0,0,0-.2-1.81H8.8a17.37,17.37,0,0,0-.31-1.8h0v0l0-.06.1-.07s-.3-.89-.49-1.34h0l0,0,0,0,.09,0L8,34.57l.08,0,.12-.22,0,.28.2.2.17-.19-.08.23a6.38,6.38,0,0,1,.65.88l.16-.08,0,.13a3.59,3.59,0,0,1,.33.7,2.36,2.36,0,0,1,.3-.16l-.1.22a1.89,1.89,0,0,1,.69,1,4.46,4.46,0,0,0-.25-2.11l-.13,0,0-.09a2.62,2.62,0,0,0-.53-.93H9.45l0-.15-.57-.66-.17.06v-.11l-.15-.07H8.53l0,0h0l0,0,0,0a1,1,0,0,1,.39-.27l0-.25.15.17a2.11,2.11,0,0,1,.57-.33l-.05-.21.14.1a3.26,3.26,0,0,1,.53-.16l.05-.21,0,.12a1.79,1.79,0,0,1,1.11-.12s-.32-.7-1.68-.85c-.18.09-.21.15-.21.15l0-.06s-.93.08-1.05.46l0-.09-.36.25,0-.13H8l.17-.06.26-.84L8.26,31l.23,0a3.67,3.67,0,0,1,.56-.79l-.11-.11.14.08a3.23,3.23,0,0,1,.55-.61l-.08-.16.13.11s.32-.68.63-.74A6,6,0,0,0,9,29v.13L8.89,29a3.22,3.22,0,0,0-.84.55,1.8,1.8,0,0,0-.09.26l-.07-.16a2,2,0,0,0-.52.74.48.48,0,0,1,0,.21L7.3,30.5a.82.82,0,0,0-.12.23l0,.09v0a.44.44,0,0,1,0,.1v0l0,.14v0a.76.76,0,0,0,0,.15v.13a8.51,8.51,0,0,0-.48-.78l-.25,0,.07-.09a1,1,0,0,0-.26-.32L6,30.3l.1-.16a2,2,0,0,0-.81-.41l-.17.16a2.06,2.06,0,0,1,.06-.2,2.14,2.14,0,0,0-2.1.73,1.81,1.81,0,0,1,1,.13l.24-.09-.09.12.56.33.35-.14L5,30.94a7.51,7.51,0,0,1,.59.53l.38-.17s0,.06-.19.24a.31.31,0,0,1,.24.13l.19-.07L6,31.75a2.38,2.38,0,0,1,.43.54l0,.05,0,.09v0l.16,0-.07.11a2.3,2.3,0,0,1,.57.69l-.05,0,0,0L7,33.1l-.06,0-.07,0-.06,0-.08,0-.07,0-.16-.06-.09,0-.07,0h0a3.85,3.85,0,0,0-.93-.13v.16l-.12-.12a2.79,2.79,0,0,0-1.07.42l.12.2-.24-.16s-.65.36-.87.5l0,.21-.14-.09a2.38,2.38,0,0,0-.79,1c.1.2,0,.2,0,.2a2.09,2.09,0,0,0,.05,2A2.51,2.51,0,0,1,3,36M7.44,33.5Zm-.06-.07s0-.06,0-.09,0,.1.05.16l0-.08Zm1.17,9.51L7.07,31.55ZM7.07,31.55v.05H7Z"/><path class="cls-1" d="M105.7,36l.09-.21-.12.09-.38-.52.08-.17-.14,0-.66-.6.08-.29-.17.19a1,1,0,0,0-.28-.2v-.15l-.1.09a3.57,3.57,0,0,0-.81-.46l0-.2-.07.1a1.89,1.89,0,0,0-.54-.12h-.18l-.07-.16,0,.12h-.22l.1,0h0a1.4,1.4,0,0,1,.68.64l-.11,0,.18.11,0,.08a4.76,4.76,0,0,1,.36.93l-.16,0,.15.1h-.08s.24.12.13.81l-.09,0,.11.2-.09,0a5.12,5.12,0,0,1-.38,1.55c-.23-.91-.43-1.07-.43-1.07l.08-.12-.11,0-.22-.63.1,0-.21-.11-.14-.3.13-.11-.23.08-.43-.95.12-.21-.2.15,0-.06c0,.1-.05.2-.07.27l-.06,0a5.7,5.7,0,0,0-.27,1.41l-.1,0s0,.09,0,.15h0a9.31,9.31,0,0,0-.08,1.54h-.07c0,.06,0,.13,0,.21a10.68,10.68,0,0,0,.16,1.6l-.08,0,0,.32.13,1.35h-.08v0h0v.1a2.76,2.76,0,0,0,.27,1.21H101a3.28,3.28,0,0,0,.26,1.1l-.14,0c0,.05,0,.12,0,.19h0a5.93,5.93,0,0,0,.41,1.35l-.13,0,.44,1.65h0l0,.1.13.45a1.7,1.7,0,0,1,.27-.51,1.38,1.38,0,0,0-.13.79s.07-.48.42-.55c-.23.12-.35.79-.35.79.12-.4.84-.59.84-.59s-.79.59-.77.94a.71.71,0,0,1,.52-.44,1.24,1.24,0,0,0-.36.68c.08-.19.47-.73,1-.56a.93.93,0,0,0-.79.69,2.69,2.69,0,0,1,.83.08,14.23,14.23,0,0,1-2.32.1,14,14,0,0,1-2.31-.1,3.41,3.41,0,0,1,1-.09,2.49,2.49,0,0,0-.36-.29,1.06,1.06,0,0,1,.69.21,2.25,2.25,0,0,0-.6-.72,1.15,1.15,0,0,1,.76.33s0-.1,0-.16a2.37,2.37,0,0,0-.26-.58,1,1,0,0,1,.23.13c0-.16,0-.33,0-.47h0V47.3c0-.3-.1-.92-.11-1.37h0a4.3,4.3,0,0,1,0-1.48h0l0-.11-.18,0a4.8,4.8,0,0,1,0-1.19h0l-.22,0s0-.87.1-1.34h0v-.07a.09.09,0,0,1,0,0v0l-.15-.06s0-.83.06-1.36h0s0-.09,0-.13V40h0a7.25,7.25,0,0,1,.2-1.81h-.07a17.37,17.37,0,0,1,.31-1.8h0v0l0-.06-.1-.07s.3-.89.49-1.34h0l0,0,0,0-.09,0,.11-.22-.08,0-.12-.22v.28l-.19.2-.17-.19.08.23a6.38,6.38,0,0,0-.65.88l-.16-.08,0,.13a3.59,3.59,0,0,0-.33.7,2.36,2.36,0,0,0-.3-.16l.1.22a1.89,1.89,0,0,0-.69,1,4.46,4.46,0,0,1,.25-2.11l.12,0,0-.09a2.62,2.62,0,0,1,.53-.93h.14l0-.15.57-.66.17.06v-.11l.15-.07h.06l0,0h0l0,0,0,0a1,1,0,0,0-.39-.27l0-.25-.16.17a2,2,0,0,0-.56-.33l.05-.21-.14.1a3.26,3.26,0,0,0-.53-.16l0-.21,0,.12a1.79,1.79,0,0,0-1.11-.12s.32-.7,1.68-.85c.18.09.21.15.21.15l0-.06s.93.08,1,.46l0-.09.36.25,0-.13h.17l-.17-.06-.26-.84.16-.07-.23,0a3.67,3.67,0,0,0-.56-.79l.11-.11-.14.08a3.23,3.23,0,0,0-.55-.61l.08-.16-.13.11s-.32-.68-.63-.74a6,6,0,0,1,1.35.14v.13l.08-.06a3.22,3.22,0,0,1,.84.55,1.8,1.8,0,0,1,.09.26l.07-.16a2,2,0,0,1,.52.74.48.48,0,0,0,0,.21l.12-.14a.82.82,0,0,1,.12.23l0,.09v0a.44.44,0,0,0,0,.1v0l0,.14v0a.76.76,0,0,1,0,.15v.13a8.51,8.51,0,0,1,.48-.78l.25,0-.07-.09a1,1,0,0,1,.26-.32l.15,0-.1-.16a2,2,0,0,1,.81-.41l.17.16a2.06,2.06,0,0,0-.06-.2,2.14,2.14,0,0,1,2.1.73,1.81,1.81,0,0,0-1,.13l-.24-.09.09.12-.56.33-.35-.14.18.17a7.51,7.51,0,0,0-.59.53l-.38-.17s0,.06.19.24a.31.31,0,0,0-.24.13l-.19-.07.16.15a2.38,2.38,0,0,0-.43.54l0,.05-.05.09v0l-.16,0,.07.11a2.3,2.3,0,0,0-.57.69l0,0,0,0,.06,0,.06,0,.07,0,.06,0,.08,0,.07,0,.16-.06.09,0,.07,0h0a3.85,3.85,0,0,1,.93-.13v.16l.12-.12a2.86,2.86,0,0,1,1.07.42l-.12.2.24-.16s.65.36.87.5l0,.21.14-.09a2.36,2.36,0,0,1,.8,1c-.1.2,0,.2,0,.2a2.09,2.09,0,0,1,0,2,2.51,2.51,0,0,0-.64-.94m-4.41-2.53Zm.06-.07s0-.06,0-.09,0,.1,0,.16l0-.08Zm-1.17,9.51,1.48-11.39Zm1.48-11.39v.05h0Z"/><polygon class="cls-2" points="95.75 21.27 89.9 18.09 89.9 49.32 95.75 49.32 95.75 21.27"/><polygon class="cls-2" points="0 25.42 10.05 25.42 54.37 4.7 54.37 0 0 25.42"/><polygon class="cls-2" points="108.73 25.42 98.68 25.42 54.37 4.7 54.37 0 108.73 25.42"/><rect class="cls-3" x="83.35" y="60.56" width="3.6"/><path class="cls-1" d="M45.46,71.28A.56.56,0,0,0,46,71a1.61,1.61,0,0,0,.17-.78,1.47,1.47,0,0,0-.17-.74.58.58,0,0,0-.52-.29.55.55,0,0,0-.52.3,1.61,1.61,0,0,0-.16.78,1.48,1.48,0,0,0,.16.74.56.56,0,0,0,.52.3m0,.19a1.19,1.19,0,0,1-.63-.17,1.1,1.1,0,0,1-.43-.45,1.17,1.17,0,0,1-.16-.6,1.25,1.25,0,0,1,.18-.68,1.31,1.31,0,0,1,.47-.44,1.12,1.12,0,0,1,.57-.16,1.22,1.22,0,0,1,1.07.62,1.27,1.27,0,0,1,.15.6,1.25,1.25,0,0,1-.18.68,1.31,1.31,0,0,1-.47.44A1.12,1.12,0,0,1,45.46,71.47Zm-2.11-3.11a.37.37,0,0,1-.25-.09A.29.29,0,0,1,43,68a.26.26,0,0,1,.12-.21.44.44,0,0,1,.27-.09.29.29,0,0,1,.22.09.36.36,0,0,1,.08.23.25.25,0,0,1-.1.21A.34.34,0,0,1,43.35,68.36Zm-.72,4.12s-.06,0-.08-.07a.35.35,0,0,1,0-.06s0,0,.05-.07A.75.75,0,0,0,43,72a1.29,1.29,0,0,0,.15-.48,7.69,7.69,0,0,0,0-.78v-1c0-.09,0-.16,0-.2a.19.19,0,0,0-.07-.11.31.31,0,0,0-.19,0s-.07,0-.09,0,0,0,0-.08a.14.14,0,0,1,0-.06l.07,0A2.44,2.44,0,0,0,43.4,69l.12,0h0c.06,0,.08,0,.08.1v1.85a2.15,2.15,0,0,1-.22,1,1.07,1.07,0,0,1-.75.54Zm-2-1a.74.74,0,0,1-.57-.22.8.8,0,0,1-.2-.56v-1c0-.09,0-.16,0-.2a.19.19,0,0,0-.07-.11.31.31,0,0,0-.19,0h-.1a.12.12,0,0,1,0-.09.14.14,0,0,1,0-.06l.07,0a2.44,2.44,0,0,0,.56-.13l.12,0h0s.08,0,.08.1v1.58a.45.45,0,0,0,.15.37.53.53,0,0,0,.35.13.7.7,0,0,0,.42-.12.57.57,0,0,0,.23-.24v-1.3a.19.19,0,0,0-.07-.11.31.31,0,0,0-.19,0h-.1a.12.12,0,0,1,0-.09.14.14,0,0,1,0-.06l.07,0A2.57,2.57,0,0,0,41.7,69l.12,0h0s.08,0,.08.1v1.81c0,.2.14.31.41.31.06,0,.09,0,.09.1s0,.08-.09.09l-.84,0s0,0,0,0,0,0,0-.08v-.29h0l-.24.21a.84.84,0,0,1-.25.13A.91.91,0,0,1,40.59,71.47Zm-2.52,0a.09.09,0,0,1-.06,0,.14.14,0,0,1,0-.07s0-.08,0-.08a.14.14,0,0,1,.09,0,.32.32,0,0,0,.19,0,.23.23,0,0,0,.07-.11,1.09,1.09,0,0,0,0-.2V68.31a1,1,0,0,0,0-.2.14.14,0,0,0-.06-.11.35.35,0,0,0-.2,0l-.09,0a.11.11,0,0,1,0-.09.07.07,0,0,1,0-.06.06.06,0,0,1,.06,0,3.39,3.39,0,0,0,.57-.14l.12,0h0c.06,0,.09,0,.09.1v3.18a1.09,1.09,0,0,0,0,.2s0,.07.07.11a.3.3,0,0,0,.19,0h0l.06,0s0,0,0,.08a.14.14,0,0,1,0,.07.09.09,0,0,1-.06,0h-1.1Zm-3.76,1.13a.6.6,0,0,1-.4-.15.42.42,0,0,1-.18-.34c0-.16.05-.26.14-.3a.53.53,0,0,1,.2-.07.33.33,0,0,1,.15,0s.05,0,.05.07,0,0,0,0a.21.21,0,0,0,0,.15.24.24,0,0,0,.07.18.22.22,0,0,0,.18.08c.22,0,.44-.23.65-.68a.52.52,0,0,0,0-.11.45.45,0,0,0,0-.13c-.07-.15-.19-.45-.35-.87s-.26-.67-.35-.87a.91.91,0,0,0-.17-.28.45.45,0,0,0-.23-.1h-.06l-.05,0a.17.17,0,0,1,0-.08s0-.07,0-.08H34a1,1,0,0,1,.51.09.85.85,0,0,1,.3.38,4.85,4.85,0,0,1,.2.51,7.91,7.91,0,0,0,.35.82h0l.51-1.37a.49.49,0,0,0,0-.12.08.08,0,0,0-.05-.08.42.42,0,0,0-.18,0h0l-.06,0a.13.13,0,0,1,0-.08.19.19,0,0,1,0-.07.05.05,0,0,1,0,0h1a.05.05,0,0,1,0,0,.1.1,0,0,1,0,.07.13.13,0,0,1,0,.08l-.06,0a.61.61,0,0,0-.3.06.46.46,0,0,0-.18.25l-.39,1c-.18.44-.31.77-.4,1a3,3,0,0,1-.44.77A.75.75,0,0,1,34.31,72.55ZM31.1,71.21a.74.74,0,0,0,.31-.07,1.33,1.33,0,0,0,.24-.19V69.56a.56.56,0,0,0-.2-.27.52.52,0,0,0-.37-.13.56.56,0,0,0-.37.13.8.8,0,0,0-.26.37,1.72,1.72,0,0,0-.09.58,1.19,1.19,0,0,0,.19.69A.64.64,0,0,0,31.1,71.21Zm-.18.26a1,1,0,0,1-.55-.16,1.17,1.17,0,0,1-.4-.45,1.4,1.4,0,0,1,0-1.26,1.29,1.29,0,0,1,.44-.46,1.24,1.24,0,0,1,.94-.13,1,1,0,0,1,.28.11h0v-.8a1,1,0,0,0,0-.2.14.14,0,0,0-.06-.11.34.34,0,0,0-.2-.05l-.09,0s0,0,0-.08,0,0,0-.06a.07.07,0,0,1,.06,0,3.46,3.46,0,0,0,.57-.13l.12,0h0c.06,0,.09,0,.09.1v3.23c0,.21.13.31.41.31.05,0,.08,0,.08.09a.09.09,0,0,1-.08.09l-.84,0s0,0,0,0v-.29h0a1.14,1.14,0,0,1-.33.23A.92.92,0,0,1,30.92,71.47Zm-2.87-.28a.63.63,0,0,0,.33-.09.7.7,0,0,0,.33-.59v-.3a1.93,1.93,0,0,0-.78.18.47.47,0,0,0-.22.44C27.71,71.07,27.82,71.19,28.05,71.19Zm-.17.28a.72.72,0,0,1-.51-.18.64.64,0,0,1,0-.94,1.1,1.1,0,0,1,.52-.21,6.5,6.5,0,0,1,.79-.08v-.41a.57.57,0,0,0-.13-.39.55.55,0,0,0-.41-.14.51.51,0,0,0-.29.1.34.34,0,0,0-.12.27.29.29,0,0,0,0,.14.76.76,0,0,0,.09.09.12.12,0,0,1,0,0s0,0-.06.08a.24.24,0,0,1-.16,0,.31.31,0,0,1-.25-.11.44.44,0,0,1-.09-.27.43.43,0,0,1,.24-.41A1.2,1.2,0,0,1,28.2,69a1.42,1.42,0,0,1,.7.16.65.65,0,0,1,.27.61V71a.35.35,0,0,0,.07.21.23.23,0,0,0,.2.09l.06,0a.1.1,0,0,1,0,.07s0,.07-.1.09a.63.63,0,0,1-.19,0,.55.55,0,0,1-.35-.12.41.41,0,0,1-.17-.31.75.75,0,0,1-.34.32A1.17,1.17,0,0,1,27.88,71.47Zm-2.43-.26a.76.76,0,0,0,.32-.07A1.33,1.33,0,0,0,26,71V69.56a.56.56,0,0,0-.2-.27.52.52,0,0,0-.37-.13.56.56,0,0,0-.37.13.8.8,0,0,0-.26.37,1.72,1.72,0,0,0-.09.58,1.19,1.19,0,0,0,.19.69A.63.63,0,0,0,25.45,71.21Zm-.17.26a1,1,0,0,1-.55-.16,1.17,1.17,0,0,1-.4-.45,1.4,1.4,0,0,1,0-1.26,1.29,1.29,0,0,1,.44-.46,1.18,1.18,0,0,1,.62-.17,1.22,1.22,0,0,1,.32,0,1,1,0,0,1,.28.11h0v-.8a1,1,0,0,0,0-.2.17.17,0,0,0-.06-.11.34.34,0,0,0-.2-.05l-.09,0s0,0,0-.08,0,0,0-.06a.07.07,0,0,1,.06,0,3.46,3.46,0,0,0,.57-.13l.12,0h0c.06,0,.09,0,.09.1v3.23c0,.21.13.31.4.31a.08.08,0,0,1,.09.09q0,.08-.09.09l-.83,0s0,0,0,0,0,0,0-.08v-.21h0a1.14,1.14,0,0,1-.33.23A.92.92,0,0,1,25.28,71.47Zm-2.06-3.11a.34.34,0,0,1-.24-.09.29.29,0,0,1-.1-.23.26.26,0,0,1,.12-.21.44.44,0,0,1,.27-.09.29.29,0,0,1,.22.09.36.36,0,0,1,.08.23.25.25,0,0,1-.1.21A.37.37,0,0,1,23.22,68.36Zm-.51,3.06a.09.09,0,0,1-.07,0,.14.14,0,0,1,0-.07s0-.08,0-.08l.1,0a.32.32,0,0,0,.19,0,.23.23,0,0,0,.07-.11v-1.6a.19.19,0,0,0-.07-.11.31.31,0,0,0-.19,0,.15.15,0,0,1-.1,0s0,0,0-.08a.14.14,0,0,1,0-.06l.07,0a2.57,2.57,0,0,0,.56-.13l.12,0h0c.05,0,.08,0,.08.1v1.83a1.09,1.09,0,0,0,0,.2.23.23,0,0,0,.07.11.32.32,0,0,0,.19,0h0l.07,0a.13.13,0,0,1,0,.08.08.08,0,0,1,0,.07.06.06,0,0,1-.06,0H22.71Zm-1.81-.21a.68.68,0,0,0,.31-.07,1.1,1.1,0,0,0,.25-.19V69.56a.56.56,0,0,0-.2-.27.52.52,0,0,0-.37-.13.56.56,0,0,0-.37.13.8.8,0,0,0-.26.37,1.72,1.72,0,0,0-.1.58,1.19,1.19,0,0,0,.2.69A.63.63,0,0,0,20.9,71.21Zm-.17.26a1,1,0,0,1-.55-.16,1.17,1.17,0,0,1-.4-.45,1.4,1.4,0,0,1,0-1.26,1.29,1.29,0,0,1,.44-.46,1.18,1.18,0,0,1,.62-.17,1.22,1.22,0,0,1,.32,0,1,1,0,0,1,.28.11h0v-.8a1,1,0,0,0,0-.2.17.17,0,0,0-.06-.11.34.34,0,0,0-.2-.05l-.09,0s0,0,0-.08,0,0,0-.06a.07.07,0,0,1,.06,0,3.46,3.46,0,0,0,.57-.13l.12,0h0c.06,0,.08,0,.08.1v3.23c0,.21.14.31.41.31a.08.08,0,0,1,.09.09q0,.08-.09.09l-.83,0s0,0,0,0,0,0,0-.08v-.21h0a1.14,1.14,0,0,1-.33.23A1,1,0,0,1,20.73,71.47ZM18,71.28A.57.57,0,0,0,18.5,71a1.61,1.61,0,0,0,.16-.78,1.38,1.38,0,0,0-.17-.74.61.61,0,0,0-1,0,1.61,1.61,0,0,0-.16.78,1.47,1.47,0,0,0,.17.74A.55.55,0,0,0,18,71.28Zm0,.19a1.25,1.25,0,0,1-.64-.17,1.16,1.16,0,0,1-.43-.45,1.27,1.27,0,0,1-.15-.6,1.25,1.25,0,0,1,.18-.68,1.29,1.29,0,0,1,.46-.44A1.13,1.13,0,0,1,18,69a1.24,1.24,0,0,1,.63.17,1.16,1.16,0,0,1,.43.45,1.28,1.28,0,0,1,.16.6,1.26,1.26,0,0,1-.19.68,1.24,1.24,0,0,1-.47.44A1.11,1.11,0,0,1,18,71.47Zm-5.85,0a.09.09,0,0,1-.06,0,.08.08,0,0,1,0-.07s0-.08,0-.08a.14.14,0,0,1,.09,0,.32.32,0,0,0,.19,0,.23.23,0,0,0,.07-.11,1.09,1.09,0,0,0,0-.2v-1.2a1,1,0,0,0,0-.2.14.14,0,0,0-.06-.11.34.34,0,0,0-.2,0s-.07,0-.09,0,0,0,0-.08a.07.07,0,0,1,0-.06.09.09,0,0,1,.06,0,2.91,2.91,0,0,0,.56-.13l.12,0h0c.05,0,.08,0,.08.1v.33h0l.15-.15a1.12,1.12,0,0,1,.29-.19,1,1,0,0,1,.36-.06.87.87,0,0,1,.44.11.69.69,0,0,1,.27.29h0a2.78,2.78,0,0,1,.39-.29,1,1,0,0,1,.48-.11.74.74,0,0,1,.57.22.76.76,0,0,1,.21.56v1.12a1.09,1.09,0,0,0,0,.2s0,.07.06.11a.35.35,0,0,0,.2,0h0l.06,0s0,0,0,.08a.09.09,0,0,1,0,.07.06.06,0,0,1-.06,0H15.31a.06.06,0,0,1-.06,0,.08.08,0,0,1,0-.07s0-.08,0-.08l.1,0a.32.32,0,0,0,.19,0,.23.23,0,0,0,.07-.11,1.09,1.09,0,0,0,0-.2V69.76a.45.45,0,0,0-.15-.37.51.51,0,0,0-.35-.13.7.7,0,0,0-.4.11.68.68,0,0,0-.21.25V71a.17.17,0,0,0,.05.16.28.28,0,0,0,.2,0h0l.07,0a.13.13,0,0,1,0,.08.14.14,0,0,1,0,.07.07.07,0,0,1-.06,0H13.74a.06.06,0,0,1-.06,0,.09.09,0,0,1,0-.07s0-.08,0-.08l.1,0c.11,0,.18,0,.21-.07A.27.27,0,0,0,14,71V69.76a.45.45,0,0,0-.15-.37.51.51,0,0,0-.35-.13.67.67,0,0,0-.39.11.72.72,0,0,0-.22.25v1.25a1.09,1.09,0,0,0,0,.2s0,.07.07.11a.3.3,0,0,0,.19,0h0l.06,0s0,0,0,.08a.14.14,0,0,1,0,.07.09.09,0,0,1-.06,0h-1.1Zm-1.66-.14A.57.57,0,0,0,11,71a1.61,1.61,0,0,0,.16-.78,1.47,1.47,0,0,0-.17-.74.61.61,0,0,0-1,0,1.61,1.61,0,0,0-.16.78A1.47,1.47,0,0,0,10,71,.55.55,0,0,0,10.47,71.28Zm0,.19a1.25,1.25,0,0,1-.64-.17,1.16,1.16,0,0,1-.43-.45,1.27,1.27,0,0,1-.15-.6,1.25,1.25,0,0,1,.18-.68,1.29,1.29,0,0,1,.46-.44,1.13,1.13,0,0,1,.58-.16,1.24,1.24,0,0,1,.63.17,1.16,1.16,0,0,1,.43.45,1.28,1.28,0,0,1,.16.6,1.26,1.26,0,0,1-.19.68,1.24,1.24,0,0,1-.47.44A1.11,1.11,0,0,1,10.47,71.47Zm-2.87,0a1.58,1.58,0,0,1-.81-.21,1.45,1.45,0,0,1-.59-.61A1.78,1.78,0,0,1,6,69.78a1.94,1.94,0,0,1,.21-.93,1.52,1.52,0,0,1,.6-.63,1.77,1.77,0,0,1,.9-.22,1.76,1.76,0,0,1,.81.18.59.59,0,0,1,.35.56.63.63,0,0,1-.14.4.51.51,0,0,1-.4.16.41.41,0,0,1-.16,0,.36.36,0,0,1-.09-.08.2.2,0,0,1,0-.08l.07-.06a.33.33,0,0,0,.13-.13.32.32,0,0,0,.06-.2.44.44,0,0,0-.16-.37.6.6,0,0,0-.44-.14,1,1,0,0,0-.57.18,1.23,1.23,0,0,0-.39.53,2.26,2.26,0,0,0-.13.83,1.87,1.87,0,0,0,.14.76,1.22,1.22,0,0,0,.43.54,1,1,0,0,0,.62.2.9.9,0,0,0,.48-.11,1.12,1.12,0,0,0,.37-.38s0-.05.07-.05l.1,0a.17.17,0,0,1,.08.12s0,0,0,0a1.94,1.94,0,0,1-.38.38,1,1,0,0,1-.38.17A1.82,1.82,0,0,1,7.6,71.51ZM5.09,72.63c-.19,0-.28-.2-.28-.61a4.89,4.89,0,0,1,0-.49L4.9,71c0-.37.07-.64.07-.79a.05.05,0,0,1,0,0,.15.15,0,0,1,.09,0l.09,0a.07.07,0,0,1,0,0,6.6,6.6,0,0,0,.07.79l.06.55a4.54,4.54,0,0,1,0,.49C5.37,72.43,5.28,72.63,5.09,72.63Zm0-3a.37.37,0,0,1-.24-.1.33.33,0,0,1-.09-.23.32.32,0,0,1,.09-.24A.32.32,0,0,1,5.1,69a.29.29,0,0,1,.23.1.3.3,0,0,1,.1.24.3.3,0,0,1-.1.23A.33.33,0,0,1,5.09,69.64Z"/><path class="cls-1" d="M85,71.47a1.34,1.34,0,0,1-.68-.15.44.44,0,0,1-.26-.41.37.37,0,0,1,.09-.25.32.32,0,0,1,.24-.09.19.19,0,0,1,.14.05s.07,0,.07.07l-.06.07a.24.24,0,0,0-.06.18.28.28,0,0,0,.14.24.81.81,0,0,0,.42.1.67.67,0,0,0,.39-.11.35.35,0,0,0,.13-.3.32.32,0,0,0-.07-.22.69.69,0,0,0-.2-.13L85,70.41a3.26,3.26,0,0,1-.42-.15.66.66,0,0,1-.28-.22.61.61,0,0,1-.11-.38.55.55,0,0,1,.14-.37.73.73,0,0,1,.35-.24,1.39,1.39,0,0,1,.46-.08,1,1,0,0,1,.53.13.4.4,0,0,1,.23.37.41.41,0,0,1-.08.24.29.29,0,0,1-.23.1.25.25,0,0,1-.15,0s-.07-.05-.07-.07l0,0,.07-.09a.21.21,0,0,0,0-.12.28.28,0,0,0-.15-.22.59.59,0,0,0-.31-.08.57.57,0,0,0-.34.1.27.27,0,0,0-.15.25.39.39,0,0,0,.06.23.35.35,0,0,0,.19.14,4.1,4.1,0,0,0,.4.14,3.49,3.49,0,0,1,.43.17.63.63,0,0,1,.25.2.59.59,0,0,1,.09.34.69.69,0,0,1-.12.39.79.79,0,0,1-.35.27,1.13,1.13,0,0,1-.49.1m-3,0a.72.72,0,0,1-.56-.22.76.76,0,0,1-.21-.56v-1c0-.09,0-.16,0-.2a.19.19,0,0,0-.07-.11.29.29,0,0,0-.19,0h-.09a.1.1,0,0,1,0-.09.09.09,0,0,1,0-.06.09.09,0,0,1,.06,0,2.44,2.44,0,0,0,.56-.13l.12,0h0c.06,0,.08,0,.08.1v1.58a.43.43,0,0,0,.16.37.49.49,0,0,0,.35.13.74.74,0,0,0,.42-.12.73.73,0,0,0,.23-.24v-1.1c0-.09,0-.16,0-.2a.19.19,0,0,0-.07-.11.31.31,0,0,0-.19,0h-.1a.12.12,0,0,1,0-.09.14.14,0,0,1,0-.06l.07,0a2.44,2.44,0,0,0,.56-.13l.12,0h0s.08,0,.08.1v1.81c0,.2.14.31.42.31.06,0,.09,0,.09.1s0,.08-.09.09l-.85,0s0,0,0,0v-.37h0l-.25.21a.78.78,0,0,1-.24.13A1,1,0,0,1,82,71.47Zm-2.11,0a.61.61,0,0,1-.44-.19.77.77,0,0,1-.18-.54V69.23H79s0,0,0,0a.14.14,0,0,1,0-.07.24.24,0,0,1,0-.08.1.1,0,0,1,0,0,.65.65,0,0,0,.29-.11.6.6,0,0,0,.15-.18,3,3,0,0,0,.11-.3.13.13,0,0,1,.12-.07l.07,0a.05.05,0,0,1,0,.06l0,.59.62,0h0s.06,0,.06.1a.31.31,0,0,1,0,.1s0,0,0,0h-.59v1.59a.52.52,0,0,0,.08.29.23.23,0,0,0,.23.11.88.88,0,0,0,.29,0l.08,0a.09.09,0,0,1,.06,0,.43.43,0,0,1,0,.07s0,0,0,0,0,0,0,0a1,1,0,0,1-.28.13A1.47,1.47,0,0,1,79.89,71.5ZM76.57,70c.17,0,.27-.07.28-.22a.69.69,0,0,0-.13-.41.45.45,0,0,0-.37-.17.54.54,0,0,0-.44.22,1,1,0,0,0-.2.58Zm-.17,1.52a1.24,1.24,0,0,1-.66-.17,1,1,0,0,1-.42-.45,1.44,1.44,0,0,1,0-1.24,1.21,1.21,0,0,1,.41-.46,1.1,1.1,0,0,1,.62-.18,1,1,0,0,1,.71.24.94.94,0,0,1,.29.64.28.28,0,0,1-.09.24.55.55,0,0,1-.28.06H75.71a1.35,1.35,0,0,0,.2.77.74.74,0,0,0,.63.29.65.65,0,0,0,.38-.1.82.82,0,0,0,.3-.33l0,0a.08.08,0,0,1,.07,0,.11.11,0,0,1,0,.09.43.43,0,0,1,0,0,1.34,1.34,0,0,1-.41.41A1.2,1.2,0,0,1,76.4,71.47Zm-3-.26a.74.74,0,0,0,.31-.07A.88.88,0,0,0,74,71V69.56a.54.54,0,0,0-.19-.27.55.55,0,0,0-.38-.13.58.58,0,0,0-.37.13.88.88,0,0,0-.26.37,1.72,1.72,0,0,0-.09.58,1.19,1.19,0,0,0,.19.69A.64.64,0,0,0,73.42,71.21Zm-.18.26a.93.93,0,0,1-.54-.16,1.19,1.19,0,0,1-.41-.45,1.34,1.34,0,0,1-.15-.64,1.25,1.25,0,0,1,.16-.62,1.26,1.26,0,0,1,.43-.46,1.2,1.2,0,0,1,.62-.17,1.12,1.12,0,0,1,.32,0,1.1,1.1,0,0,1,.29.11h0v-1A.19.19,0,0,0,73.9,68a.31.31,0,0,0-.19-.05.22.22,0,0,1-.1,0s0,0,0-.08a.08.08,0,0,1,0-.06s0,0,.06,0a3.46,3.46,0,0,0,.57-.13l.12,0h0s.08,0,.08.1v3.23c0,.21.14.31.41.31a.08.08,0,0,1,.09.09q0,.08-.09.09l-.83,0s0,0,0,0v-.29h0a1.14,1.14,0,0,1-.33.23A.92.92,0,0,1,73.24,71.47ZM69.73,70c.18,0,.27-.07.28-.22a.63.63,0,0,0-.13-.41.44.44,0,0,0-.37-.17.56.56,0,0,0-.44.22,1,1,0,0,0-.19.58Zm-.16,1.52a1.28,1.28,0,0,1-.67-.17,1.14,1.14,0,0,1-.42-.45,1.53,1.53,0,0,1-.14-.64,1.27,1.27,0,0,1,.15-.6,1.13,1.13,0,0,1,.41-.46,1.07,1.07,0,0,1,.61-.18,1,1,0,0,1,.72.24,1,1,0,0,1,.29.64.29.29,0,0,1-.1.24.49.49,0,0,1-.27.06H68.88a1.28,1.28,0,0,0,.2.77.81.81,0,0,0,1,.19,1,1,0,0,0,.3-.33l0,0a.07.07,0,0,1,.06,0,.09.09,0,0,1,0,.09.07.07,0,0,1,0,0,1.24,1.24,0,0,1-.41.41A1.13,1.13,0,0,1,69.57,71.47Zm-2.57,0a1.05,1.05,0,0,1-.84-.34,1.33,1.33,0,0,1-.3-.91,1.24,1.24,0,0,1,.61-1.08,1.31,1.31,0,0,1,.62-.17,1.14,1.14,0,0,1,.57.13.46.46,0,0,1,.15.7.31.31,0,0,1-.26.12.26.26,0,0,1-.17,0s-.07-.06-.07-.09l0,0a.44.44,0,0,0,.08-.11.21.21,0,0,0,0-.14.29.29,0,0,0-.11-.24.48.48,0,0,0-.29-.09.56.56,0,0,0-.55.3,1.81,1.81,0,0,0-.14.74,1.2,1.2,0,0,0,.2.72.62.62,0,0,0,.53.29.65.65,0,0,0,.38-.1.76.76,0,0,0,.29-.3.08.08,0,0,1,.06,0h.05a.08.08,0,0,1,0,0,.07.07,0,0,1,0,.1,1.31,1.31,0,0,1-.42.39A1.16,1.16,0,0,1,67,71.47Zm-4.22,0a.09.09,0,0,1-.06,0,.08.08,0,0,1,0-.07s0-.08,0-.08l.09,0a.35.35,0,0,0,.2,0s.06-.07.06-.11a1.09,1.09,0,0,0,0-.2v-1.2a1,1,0,0,0,0-.2.17.17,0,0,0-.06-.11.34.34,0,0,0-.2,0s-.07,0-.09,0,0,0,0-.08a.07.07,0,0,1,0-.06.09.09,0,0,1,.06,0,2.91,2.91,0,0,0,.56-.13l.12,0h0c.05,0,.08,0,.08.1v.33h0l.24-.21a.84.84,0,0,1,.25-.13.91.91,0,0,1,.35-.06.74.74,0,0,1,.57.22.76.76,0,0,1,.21.56v1.12a1.09,1.09,0,0,0,0,.2s0,.07.06.11a.35.35,0,0,0,.2,0h0l.06,0s0,0,0,.08a.09.09,0,0,1,0,.07.06.06,0,0,1-.06,0H64.41a.09.09,0,0,1-.06,0,.08.08,0,0,1,0-.07s0-.08,0-.08l.1,0a.32.32,0,0,0,.19,0,.23.23,0,0,0,.07-.11,1.09,1.09,0,0,0,0-.2V69.76a.45.45,0,0,0-.15-.37.51.51,0,0,0-.35-.13.74.74,0,0,0-.42.12.73.73,0,0,0-.23.24v1.25a1.09,1.09,0,0,0,0,.2s0,.07.06.11a.35.35,0,0,0,.2,0h0l.06,0s0,0,0,.08a.14.14,0,0,1,0,.07.09.09,0,0,1-.06,0h-1.1ZM61,71.19a.63.63,0,0,0,.33-.09.53.53,0,0,0,.24-.25.64.64,0,0,0,.09-.34v-.3a1.92,1.92,0,0,0-.77.18.48.48,0,0,0-.23.44C60.63,71.07,60.75,71.19,61,71.19Zm-.16.28a.72.72,0,0,1-.51-.18.59.59,0,0,1-.2-.44.61.61,0,0,1,.22-.5,1.18,1.18,0,0,1,.53-.21,6.3,6.3,0,0,1,.78-.08v-.41a.46.46,0,0,0-.54-.53.48.48,0,0,0-.28.1.34.34,0,0,0-.12.27.21.21,0,0,0,0,.14.73.73,0,0,0,.08.09l0,0s0,0-.07.08a.21.21,0,0,1-.16,0,.34.34,0,0,1-.25-.11.44.44,0,0,1-.09-.27.43.43,0,0,1,.25-.41,1.2,1.2,0,0,1,.59-.13,1.45,1.45,0,0,1,.7.16.65.65,0,0,1,.26.61V71a.58.58,0,0,0,.07.21.23.23,0,0,0,.21.09.08.08,0,0,1,.06,0,.1.1,0,0,1,0,.07s0,.07-.1.09l-.19,0a.53.53,0,0,1-.35-.12.45.45,0,0,1-.18-.31.68.68,0,0,1-.33.32A1.21,1.21,0,0,1,60.81,71.47Zm-2,0a1.05,1.05,0,0,1-.84-.34,1.34,1.34,0,0,1-.31-.91,1.36,1.36,0,0,1,.18-.64,1.24,1.24,0,0,1,.44-.44,1.3,1.3,0,0,1,.61-.17,1.16,1.16,0,0,1,.58.13.42.42,0,0,1,.25.42.48.48,0,0,1-.1.28.31.31,0,0,1-.26.12.25.25,0,0,1-.17,0s-.07-.06-.07-.09l0,0a.44.44,0,0,0,.08-.11.21.21,0,0,0,0-.14.27.27,0,0,0-.12-.24.43.43,0,0,0-.28-.09.56.56,0,0,0-.55.3,1.81,1.81,0,0,0-.14.74,1.14,1.14,0,0,0,.2.72.62.62,0,0,0,.53.29.67.67,0,0,0,.38-.1.84.84,0,0,0,.29-.3l0,0h.06a.08.08,0,0,1,0,0,.07.07,0,0,1,0,.1,1.34,1.34,0,0,1-.43.39A1.09,1.09,0,0,1,58.8,71.47Zm-2.62,0a.09.09,0,0,1-.06,0,.14.14,0,0,1,0-.07s0-.08,0-.08a.14.14,0,0,1,.09,0,.32.32,0,0,0,.19,0,.23.23,0,0,0,.07-.11,1.09,1.09,0,0,0,0-.2V68.31a1,1,0,0,0,0-.2.14.14,0,0,0-.06-.11.35.35,0,0,0-.2,0l-.09,0a.11.11,0,0,1,0-.09.14.14,0,0,1,0-.06.06.06,0,0,1,.06,0,3.39,3.39,0,0,0,.57-.14l.12,0h0c.06,0,.09,0,.09.1v3.18a1.09,1.09,0,0,0,0,.2.23.23,0,0,0,.07.11.3.3,0,0,0,.19,0h0l.06,0s0,0,0,.08a.14.14,0,0,1,0,.07.07.07,0,0,1-.06,0h-1.1Zm-1.78-.23a.63.63,0,0,0,.33-.09.7.7,0,0,0,.33-.59v-.3a1.87,1.87,0,0,0-.77.18.48.48,0,0,0-.23.44C54.06,71.07,54.17,71.19,54.4,71.19Zm-.17.28a.7.7,0,0,1-.5-.18.59.59,0,0,1-.2-.44.61.61,0,0,1,.22-.5,1.14,1.14,0,0,1,.53-.21,6.3,6.3,0,0,1,.78-.08v-.41a.53.53,0,0,0-.13-.39.53.53,0,0,0-.41-.14.45.45,0,0,0-.28.1.34.34,0,0,0-.12.27.21.21,0,0,0,0,.14.34.34,0,0,0,.08.09l0,0s0,0-.07.08a.22.22,0,0,1-.16,0,.33.33,0,0,1-.25-.11.44.44,0,0,1-.09-.27A.43.43,0,0,1,54,69.1a1.22,1.22,0,0,1,.59-.13,1.42,1.42,0,0,1,.7.16.65.65,0,0,1,.27.61V71a.58.58,0,0,0,.07.21.23.23,0,0,0,.2.09.08.08,0,0,1,.06,0s0,0,0,.07,0,.07-.09.09a.69.69,0,0,1-.2,0,.57.57,0,0,1-.35-.12.44.44,0,0,1-.17-.31.67.67,0,0,1-.34.32A1.14,1.14,0,0,1,54.23,71.47Zm-3.34,0a.09.09,0,0,1-.06,0,.14.14,0,0,1,0-.07s0-.08,0-.08a.14.14,0,0,1,.09,0,.32.32,0,0,0,.19,0,.23.23,0,0,0,.07-.11,1.09,1.09,0,0,0,0-.2V68.31a1,1,0,0,0,0-.2.14.14,0,0,0-.06-.11.33.33,0,0,0-.2,0l-.09,0a.11.11,0,0,1,0-.09.14.14,0,0,1,0-.06.06.06,0,0,1,.06,0,3.39,3.39,0,0,0,.57-.14l.12,0h0c.06,0,.09,0,.09.1v3.18a1.09,1.09,0,0,0,0,.2.23.23,0,0,0,.07.11.3.3,0,0,0,.19,0h0l.06,0s0,0,0,.08a.14.14,0,0,1,0,.07.07.07,0,0,1-.06,0h-1.1Zm-1.78-.23a.63.63,0,0,0,.33-.09.7.7,0,0,0,.33-.59v-.3a1.87,1.87,0,0,0-.77.18.48.48,0,0,0-.23.44C48.77,71.07,48.88,71.19,49.11,71.19Zm-.17.28a.7.7,0,0,1-.5-.18.59.59,0,0,1-.2-.44.61.61,0,0,1,.22-.5,1.14,1.14,0,0,1,.53-.21,6.3,6.3,0,0,1,.78-.08v-.41a.53.53,0,0,0-.13-.39.53.53,0,0,0-.41-.14.45.45,0,0,0-.28.1.34.34,0,0,0-.12.27.21.21,0,0,0,0,.14.34.34,0,0,0,.08.09l0,0s0,0-.07.08a.22.22,0,0,1-.16,0,.33.33,0,0,1-.25-.11.44.44,0,0,1-.09-.27.43.43,0,0,1,.24-.41,1.22,1.22,0,0,1,.59-.13,1.42,1.42,0,0,1,.7.16.65.65,0,0,1,.27.61V71a.58.58,0,0,0,.07.21.23.23,0,0,0,.2.09l.07,0s0,0,0,.07,0,.07-.09.09l-.19,0a.58.58,0,0,1-.36-.12.44.44,0,0,1-.17-.31.67.67,0,0,1-.34.32A1.14,1.14,0,0,1,48.94,71.47Z"/><path class="cls-1" d="M103.63,71.47a.29.29,0,0,1-.23-.1.3.3,0,0,1-.1-.24.29.29,0,0,1,.1-.23.33.33,0,0,1,.24-.1.35.35,0,0,1,.24.1.32.32,0,0,1,.09.23.32.32,0,0,1-.09.24.32.32,0,0,1-.25.1m0-1.15a.15.15,0,0,1-.09,0,.07.07,0,0,1,0,0,6.77,6.77,0,0,0-.07-.79l-.06-.55a4.89,4.89,0,0,1,0-.49c0-.41.1-.61.29-.61s.28.2.28.61a4.89,4.89,0,0,1,0,.49l-.06.55c0,.38-.07.64-.07.79a.05.05,0,0,1,0,0A.15.15,0,0,1,103.64,70.32Zm-1.87,1.15a1.37,1.37,0,0,1-.68-.15.46.46,0,0,1-.26-.41.37.37,0,0,1,.09-.25.32.32,0,0,1,.24-.09.2.2,0,0,1,.15.05s.06,0,.06.07l-.06.07a.24.24,0,0,0-.06.18.27.27,0,0,0,.15.24.75.75,0,0,0,.41.1.62.62,0,0,0,.39-.11.36.36,0,0,0,.14-.3.33.33,0,0,0-.08-.22.58.58,0,0,0-.2-.13l-.32-.11a2.79,2.79,0,0,1-.42-.15A.66.66,0,0,1,101,70a.56.56,0,0,1-.12-.38.55.55,0,0,1,.14-.37.79.79,0,0,1,.35-.24,1.44,1.44,0,0,1,.46-.08,1,1,0,0,1,.54.13.42.42,0,0,1,.23.37.36.36,0,0,1-.09.24.28.28,0,0,1-.23.1.3.3,0,0,1-.15,0s-.06-.05-.06-.07l0,0,.08-.09a.21.21,0,0,0,0-.12.27.27,0,0,0-.14-.22.62.62,0,0,0-.31-.08.6.6,0,0,0-.35.1.27.27,0,0,0-.15.25.39.39,0,0,0,.06.23.45.45,0,0,0,.19.14l.4.14a3.75,3.75,0,0,1,.44.17.68.68,0,0,1,.24.2.53.53,0,0,1,.1.34.7.7,0,0,1-.13.39.74.74,0,0,1-.35.27A1.1,1.1,0,0,1,101.77,71.47Zm-2.57-.19a.57.57,0,0,0,.52-.31,1.61,1.61,0,0,0,.16-.78,1.38,1.38,0,0,0-.17-.74.61.61,0,0,0-1,0,1.61,1.61,0,0,0-.16.78,1.47,1.47,0,0,0,.17.74A.55.55,0,0,0,99.2,71.28Zm0,.19a1.25,1.25,0,0,1-.64-.17,1.16,1.16,0,0,1-.43-.45,1.27,1.27,0,0,1-.15-.6,1.25,1.25,0,0,1,.18-.68,1.24,1.24,0,0,1,.47-.44A1.07,1.07,0,0,1,99.2,69a1.24,1.24,0,0,1,.63.17,1.16,1.16,0,0,1,.43.45,1.28,1.28,0,0,1,.16.6,1.26,1.26,0,0,1-.19.68,1.24,1.24,0,0,1-.47.44A1.11,1.11,0,0,1,99.2,71.47Zm-4.3,0a.09.09,0,0,1-.06,0,.14.14,0,0,1,0-.07s0-.08,0-.08l.09,0a.35.35,0,0,0,.2,0,.15.15,0,0,0,.06-.11,1.09,1.09,0,0,0,0-.2v-1.2a1,1,0,0,0,0-.2.14.14,0,0,0-.06-.11.34.34,0,0,0-.2,0s-.07,0-.09,0,0,0,0-.08a.07.07,0,0,1,0-.06.09.09,0,0,1,.06,0,2.74,2.74,0,0,0,.56-.13l.12,0h0c.05,0,.08,0,.08.1v.33h0l.24-.21a.84.84,0,0,1,.25-.13.91.91,0,0,1,.35-.06.74.74,0,0,1,.57.22.76.76,0,0,1,.21.56v1.12a1.09,1.09,0,0,0,0,.2s0,.07.06.11a.35.35,0,0,0,.2,0h0l.06,0s0,0,0,.08a.09.09,0,0,1,0,.07.06.06,0,0,1-.06,0H96.53a.09.09,0,0,1-.06,0,.08.08,0,0,1,0-.07s0-.08,0-.08a.14.14,0,0,1,.09,0,.32.32,0,0,0,.19,0,.23.23,0,0,0,.07-.11,1.09,1.09,0,0,0,0-.2V69.76a.45.45,0,0,0-.15-.37.51.51,0,0,0-.35-.13.74.74,0,0,0-.42.12.73.73,0,0,0-.23.24v1.25a1.09,1.09,0,0,0,0,.2s0,.07.07.11a.3.3,0,0,0,.19,0h0l.06,0s0,0,0,.08a.14.14,0,0,1,0,.07.09.09,0,0,1-.06,0H94.9Zm-1.81-.23a.63.63,0,0,0,.33-.09.6.6,0,0,0,.25-.25.74.74,0,0,0,.08-.34v-.3a1.92,1.92,0,0,0-.77.18.48.48,0,0,0-.23.44C92.75,71.07,92.87,71.19,93.09,71.19Zm-.16.28a.72.72,0,0,1-.51-.18.64.64,0,0,1,0-.94,1.1,1.1,0,0,1,.52-.21,6.3,6.3,0,0,1,.78-.08v-.41a.46.46,0,0,0-.53-.53.48.48,0,0,0-.29.1.34.34,0,0,0-.12.27.21.21,0,0,0,0,.14l.08.09,0,0s0,0-.07.08a.21.21,0,0,1-.16,0,.3.3,0,0,1-.24-.11.39.39,0,0,1-.1-.27.43.43,0,0,1,.25-.41,1.2,1.2,0,0,1,.59-.13,1.45,1.45,0,0,1,.7.16.65.65,0,0,1,.27.61V71a.42.42,0,0,0,.06.21.25.25,0,0,0,.21.09.08.08,0,0,1,.06,0,.1.1,0,0,1,0,.07s0,.07-.1.09l-.19,0a.55.55,0,0,1-.35-.12.45.45,0,0,1-.18-.31.68.68,0,0,1-.33.32A1.21,1.21,0,0,1,92.93,71.47Zm-5.31,0a.06.06,0,0,1-.06,0,.09.09,0,0,1,0-.07s0-.08,0-.08l.09,0a.35.35,0,0,0,.2,0,.23.23,0,0,0,.07-.11s0-.11,0-.2v-1.2c0-.09,0-.16,0-.2a.19.19,0,0,0-.07-.11.31.31,0,0,0-.19,0,.15.15,0,0,1-.1,0s0,0,0-.08a.14.14,0,0,1,0-.06l.07,0a3.11,3.11,0,0,0,.56-.13l.12,0h0c.06,0,.09,0,.09.1v.33h0l.16-.15a.83.83,0,0,1,.65-.25.83.83,0,0,1,.43.11.65.65,0,0,1,.28.29h0a2,2,0,0,1,.39-.29,1,1,0,0,1,.48-.11.73.73,0,0,1,.56.22.76.76,0,0,1,.21.56v1.12a1.09,1.09,0,0,0,0,.2.23.23,0,0,0,.07.11.32.32,0,0,0,.19,0h0l.07,0a.13.13,0,0,1,0,.08.08.08,0,0,1,0,.07.09.09,0,0,1-.06,0H90.8a.09.09,0,0,1-.07,0,.14.14,0,0,1,0-.07s0-.08,0-.08l.09,0a.35.35,0,0,0,.2,0s.06-.07.06-.11a1.09,1.09,0,0,0,0-.2V69.76a.45.45,0,0,0-.15-.37.51.51,0,0,0-.35-.13.67.67,0,0,0-.39.11.84.84,0,0,0-.22.25V71a.2.2,0,0,0,.06.16.27.27,0,0,0,.2,0h0l.06,0a.22.22,0,0,1,0,.08.09.09,0,0,1,0,.07.06.06,0,0,1-.06,0H89.22a.09.09,0,0,1-.06,0,.14.14,0,0,1,0-.07s0-.08,0-.08l.09,0c.12,0,.19,0,.22-.07a.27.27,0,0,0,0-.16V69.76a.45.45,0,0,0-.15-.37.49.49,0,0,0-.35-.13.67.67,0,0,0-.39.11.84.84,0,0,0-.22.25v1.25c0,.09,0,.15,0,.2a.23.23,0,0,0,.07.11.32.32,0,0,0,.19,0h0l.06,0a.13.13,0,0,1,0,.08.08.08,0,0,1,0,.07.06.06,0,0,1-.06,0H87.62Z"/></g></g></svg>