<svg xmlns="http://www.w3.org/2000/svg" viewBox="0 0 169.31 136.31"><defs><style>.cls-1{fill:#f6921f;}.cls-2,.cls-5{fill:#f49221;}.cls-3{fill:#f39221;}.cls-4{fill:#fff;}.cls-5{stroke:#fedd59;stroke-miterlimit:10;stroke-width:4px;}</style></defs><g id="Capa_2" data-name="Capa 2"><g id="Capa_1-2" data-name="Capa 1"><polygon class="cls-1" points="92.35 31.65 72.35 48.65 92.35 48.65 92.35 31.65"/><path class="cls-2" d="M143.63,27.65H98.35c.62,25.13.49,28.67-26,27v76h69.43a9.57,9.57,0,0,0,9.57-9.57V35.37A7.72,7.72,0,0,0,143.63,27.65Zm-1.28,76c-1.17-.87-36.91,2.17-35-2-2-4.15,34-1.13,35-2C144.93,99.61,145,103.69,142.35,103.65Zm0-10h-62a2,2,0,0,1,0-4h62C144.92,89.61,145,93.69,142.35,93.65Zm0-10h-62a2,2,0,0,1,0-4h62C144.92,79.61,145,83.69,142.35,83.65Zm0-10h-62a2,2,0,0,1,0-4h62C144.92,69.61,145,73.69,142.35,73.65Zm0-10h-62a2,2,0,0,1,0-4h62C144.92,59.61,145,63.69,142.35,63.65Z"/><path class="cls-3" d="M159.48,57.46c-.34,9.67-.75,19.12.26,28.25-4.31-3.38-1.37-24.25-1.14-30.54.42-1.31,2-1.93,2.52-3.2.28-2.31,1.6-8.61,4.84-5.8,4.85,12.62,2.54,27.16,3.35,40.49-.44,16,1.2,33.07-3.45,48.34-1.55,6.47-4.08-13.08-4.05-14.65-1.68-17.36-1.48-34.83-1.55-52.26C159.64,65.43,161.87,58.56,159.48,57.46ZM167.76,86c1.37-40.1-7-55.81-6-3.43A14,14,0,0,1,167.76,86Zm-1.4,40.21a301.41,301.41,0,0,0,1.46-31.51c-1.37-1.1-4.1-.71-5.83-.15C163,102.09,160.53,122.18,166.36,126.2Zm1.45-35.37c.71-3.59-3-5.55-5.93-6.63l.05,6.68A11.17,11.17,0,0,1,167.81,90.83Zm-3.71,35.55-.08,0,1.11,6.26h.1C165.75,130.22,167,127.65,164.1,126.38Zm-2-33.86a16.92,16.92,0,0,1,5.59-.07C166.73,91.92,163,91.74,162.08,92.52Zm3-45c-.42-1-.86-.4-1.26.26Z"/><path class="cls-4" d="M162.08,92.52c.87-.78,4.65-.6,5.59-.07A16.92,16.92,0,0,0,162.08,92.52Z"/><path class="cls-5" d="M51,26.15c-.55,32.21-48.45,32.2-49,0C2.55-6,50.45-6,51,26.15Z"/><path class="cls-4" d="M34.19,39.65h-18V35.87l6.45-6.52q2-2,3.14-3.35a11.19,11.19,0,0,0,1.72-2.45,5.34,5.34,0,0,0,.53-2.37,2.91,2.91,0,0,0-.85-2.29A3.27,3.27,0,0,0,25,18.12a6.47,6.47,0,0,0-2.9.69,14.35,14.35,0,0,0-2.94,2l-2.95-3.5a27.78,27.78,0,0,1,2.34-1.79,10.89,10.89,0,0,1,2.89-1.37,13.37,13.37,0,0,1,3.94-.51,9.57,9.57,0,0,1,4.35.91A6.83,6.83,0,0,1,32.49,17a6.61,6.61,0,0,1,1,3.56,8.89,8.89,0,0,1-.84,3.88,14.14,14.14,0,0,1-2.45,3.48q-1.62,1.72-3.88,3.82L23,34.84v.24h11.2Z"/></g></g></svg>