<svg xmlns="http://www.w3.org/2000/svg" viewBox="0 0 202.59 184.87"><defs><style>.cls-1,.cls-3{fill:#ff8b1a;}.cls-1,.cls-2,.cls-3{stroke:#ff8b1a;}.cls-1,.cls-2,.cls-3,.cls-4{stroke-miterlimit:10;}.cls-1{stroke-width:2px;}.cls-2{fill:none;}.cls-3{stroke-width:0.75px;}.cls-4{fill:#f49221;stroke:#fedd59;stroke-width:4px;}.cls-5{fill:#fff;}</style></defs><g id="Capa_2" data-name="Capa 2"><g id="Capa_1-2" data-name="Capa 1"><path class="cls-1" d="M107.24,55.4c-5.85.48-17,6.84-19.39-1.32-.79-3.21,1.11-5.83,5.06-6.85,6.41-1.66,12.84-3.26,19.32-5.5-5.11-1.11-15.43,0-14.43-7.55.39-3.27,2.84-5.05,6.81-4.6,24.17,3.31,48.34,6.53,72.68,2.75.88-4.66,1.22-4.92,5.79-5.31,4.95.61,15.5-4.84,15.83,3,.89,9.49,1.69,19,2.67,28.46.33,7.62-11.18,3.92-16,5.73-2.73.33-4.67-.33-5.27-3.87-6.55,4.42-11.42,10.43-19.5,12.28-2.22.76-3,1.91-3.1,4.12-1.56,6.53,1.89,20.52-7.47,21.08-3.53-.07-5.84-2.23-5.9-6.23-.1-6.31,0-12.63.3-18.94,2-10.06-15.28-15.82-18.8-5.43a125.39,125.39,0,0,0-6.73,25.62c-.55,3-2.38,4.51-5.35,4.26-8.31.52-2.25-23.88-2.73-30-6.57,4.74-11.88,8.64-18.08,13.15-6.74,5.28-13.73-4.17-6.57-8.93,7-5.24,14.28-10.17,21.19-15.53ZM179.44,58l.83.2L178,34.35c-20.63,1.89-41.47.93-59.28,12.7-7.15,4.07-3.94,14.89-5.84,21.85.63,4.38-4.73,27.21,1.21,26.18,8.18-3.65,2.15-40.32,23.15-34.69,14.89,3.51,7.52,19.72,9,30.46,0,3.47,1.5,5.12,4.12,5,6.83-.65,4-14.68,5.38-19.82.13-2.7,1-4.19,3.76-5C167.62,69.09,173.29,63.22,179.44,58Zm20.06-1.13C198,51,199.15,30.36,194.85,28c-4,.94-13.66-1.06-14.95,3.67.7,9.29,1.66,18.56,2.42,27.84.55,5.8,9.55,1,13.41,1.72C199.78,60.9,199.79,60.94,199.5,56.86Zm-87.12-2c-8.75,6.36-16.75,12.2-24.79,18-2.1,1.52-3.2,3.37-1.44,5.65s3.66,1.54,5.62.1c5.92-4.38,11.91-8.66,17.82-13.06C112.83,63,111.53,59.14,112.38,54.9Zm24.14-19.54c-10.8-1.35-21.62-2.61-32.44-3.87-5.28-1.06-5.93,7.06-.62,7.09A51.37,51.37,0,0,0,136.52,35.36Zm-11.65,6.38-.21-.52c-10.74,2.74-21.48,5.46-32.22,8.24-4.61.85-2.8,8.17,1.73,6.8C121.16,51.83,106.45,50.37,124.87,41.74Z"/><path class="cls-1" d="M79.14,177.62c-1,6-1,6-7.1,6-4.72-.93-15.27,3-15.13-4.4,0-9.86,0-19.72,0-29.58.36-7.5,11-3.2,15.91-4.29,5.24,0,5.54.27,6.29,6.09,1.23-.38,3-.38,3.44-1.15C91.7,136,120,144.44,135.1,142.77c7.68,0,8.48,12,.6,12.36-6.78,1.24-14.74-1.59-20.87,1.56,6.84,5.55,17.58,5.11,26.2,5.1,12.11,1.47,27.74-18.9,33.63-11.68,5.84,8.22-14.56,17-19.47,22.08-8.94,6.58-19.58,8.08-30,10.53C109.38,185.48,94.68,178.26,79.14,177.62Zm-.22-2.81c24.83,5,49.35,11.45,72.46-2.88,6.53-4.65,12.91-9.52,19.34-14.31,2.39-1.25,2-3.81,2.29-6.09-8.72-1.34-15.59,9.48-24.39,11-7.11,2.47-34.15,2.64-35.73-6.18,3.54-8.45,24.74,2.48,26.16-7.08,1.39-8-27-3.83-33-5.18-24.36-1.08-17.3,10-27.13,9.43Zm-2.27-10.33h0c-.76-17.95,4.85-17.61-15.17-17-5-1.48-1.31,26.87-2.42,31.45,0,5.08,10.94,1.4,14.55,2.58C79.37,182.26,75.61,168.33,76.65,164.48Z"/><path class="cls-1" d="M135.93,119.73c2.71,1.66,6.69-1.4,7.52,3.31.63,3.57-2.33,3-4.25,4,3.43-.39,6.58,5.72,1.73,6-2.48.06-4.73-.2-6.78,2.28-9.75,5.91-4.91-20.59-5.93-25.47.14-4.14.35-7.63-4.46-10.26S119.07,90,123.14,86c10.23-10.63,29.86,5.39,15.23,15C133.37,104.4,137,114.33,135.93,119.73Zm5.48,2.84c-3.35-.38-8.22,1.59-7.63-3.46.2-5,.17-10.06,0-15.08-.08-2.31.43-3.66,2.8-4.58,6.46-2.06,6-12-.43-13.76C126,81,115.62,94.7,128,99.86c2.1.74,2.44,1.88,2.42,3.8.81,2.89-2.55,35.78,2.87,29.53,1.4-3.66,5-1.66,7.6-2.45-1.49-1.45-2.82-2.75-4.16-4C138.09,125.5,139.44,124.3,141.41,122.57Z"/><path class="cls-2" d="M68,171.68c6.49,6.36-.46,11.1-3,4.3C65,174.9,66.52,173.73,68,171.68Z"/><path class="cls-3" d="M131.87,87.6c8.32-.08,8.34,10.27-.05,10.14C123.49,97.83,123.47,87.51,131.87,87.6Zm-.11,9.13c8.81-5.5,1.19-9.72-4.19-4.17Z"/><path class="cls-4" d="M51,26.15c-.55,32.21-48.45,32.2-49,0C2.55-6,50.45-6,51,26.15Z"/><path class="cls-5" d="M25.58,23.24a9.38,9.38,0,0,1,4.19.89,6.77,6.77,0,0,1,2.89,2.64,8.08,8.08,0,0,1,1.06,4.29,9.57,9.57,0,0,1-1.15,4.79,7.48,7.48,0,0,1-3.43,3.08A13.21,13.21,0,0,1,23.47,40a20.06,20.06,0,0,1-3.81-.35,11.21,11.21,0,0,1-3.12-1v-4.7a14.69,14.69,0,0,0,3.21,1.19,14.22,14.22,0,0,0,3.53.48A7.5,7.5,0,0,0,26,35.16a3.31,3.31,0,0,0,1.68-1.33,4.3,4.3,0,0,0,.57-2.31A3.48,3.48,0,0,0,27,28.63a6.22,6.22,0,0,0-3.89-1,12.67,12.67,0,0,0-2.08.19q-1.08.2-1.8.39l-2.17-1.16L18,14H32v4.61H22.78l-.47,5.05c.4-.09.83-.17,1.3-.25A12.46,12.46,0,0,1,25.58,23.24Z"/></g></g></svg>