<svg xmlns="http://www.w3.org/2000/svg" viewBox="0 0 214.53 176.15"><defs><style>.cls-1,.cls-2{fill:#f49221;}.cls-2{stroke:#fedd59;stroke-miterlimit:10;stroke-width:4px;}.cls-3{fill:#fff;}</style></defs><g id="Capa_2" data-name="Capa 2"><g id="Capa_1-2" data-name="Capa 1"><path class="cls-1" d="M55.53,176.15h-15s0-6,7-7c0,0,5-11,14-10v-63h-19l4-34h38l3,34h-18v63s13,2,13,12h7v-14h39v16h18v-6h9v4h40v-4h10l3,3h6v6Z"/><rect class="cls-1" x="89.03" y="135.65" width="38" height="14"/><path class="cls-1" d="M141.53,132.12v30h19v-3h33v3h18V133.7c.23-12.46-18.64-14.36-19-1.17v9.62h-32v-8.78C161,121.2,141.69,119.19,141.53,132.12Z"/><path class="cls-1" d="M149.53,119.15v-15h54v13s-14-2-16,9h-22S162.53,115.15,149.53,119.15Z"/><path class="cls-1" d="M97,128.65h24v-10H111v-7c10.88-2.19,13.65-18.82-1-12v-5s6-12-2-14-8,14-3,14c0,0,2.5,5.5.5,9.5-16.06-5.29-8,11.22,1,11v4h-10Z"/><path class="cls-2" d="M51,26.15c-.55,32.21-48.45,32.2-49,0C2.55-6,50.45-6,51,26.15Z"/><path class="cls-3" d="M16.05,28.74a29.19,29.19,0,0,1,.33-4.39,16.7,16.7,0,0,1,1.13-4.09,10.77,10.77,0,0,1,2.27-3.41,10.16,10.16,0,0,1,3.71-2.34,15.37,15.37,0,0,1,5.45-.85c.5,0,1.09,0,1.76.06a12.11,12.11,0,0,1,1.68.2v4.34c-.47-.1-1-.19-1.5-.25a12.12,12.12,0,0,0-1.59-.1,9.93,9.93,0,0,0-4.95,1,5.53,5.53,0,0,0-2.46,2.82A13.31,13.31,0,0,0,21,25.94h.23a6.27,6.27,0,0,1,1.24-1.53,5.7,5.7,0,0,1,1.82-1.06,7.34,7.34,0,0,1,2.51-.4,7.66,7.66,0,0,1,3.91,1,6.41,6.41,0,0,1,2.55,2.77,10,10,0,0,1,.89,4.41,10,10,0,0,1-1.07,4.78,7.35,7.35,0,0,1-3,3.07A9.62,9.62,0,0,1,25.44,40a10,10,0,0,1-3.68-.68,8,8,0,0,1-3-2.07,9.56,9.56,0,0,1-2-3.5A15.7,15.7,0,0,1,16.05,28.74Zm9.28,6.92a3.34,3.34,0,0,0,2.6-1.09,4.89,4.89,0,0,0,1-3.41,4.6,4.6,0,0,0-.87-3,3.18,3.18,0,0,0-2.63-1.08,4,4,0,0,0-2.1.54A3.87,3.87,0,0,0,21.94,29a3.22,3.22,0,0,0-.49,1.68,6.63,6.63,0,0,0,.24,1.77,5.45,5.45,0,0,0,.74,1.6,4,4,0,0,0,1.22,1.16A3.15,3.15,0,0,0,25.33,35.66Z"/></g></g></svg>