<svg xmlns="http://www.w3.org/2000/svg" viewBox="0 0 181.76 153.82"><defs><style>.cls-1{fill:none;}.cls-2{fill:#f6921f;}.cls-3,.cls-8{fill:#f49221;}.cls-4{fill:#fff;}.cls-5{fill:#ef932b;}.cls-6{fill:#fedd59;}.cls-7{fill:#f59320;}.cls-8{stroke:#fedd59;stroke-miterlimit:10;stroke-width:4px;}</style></defs><g id="Capa_2" data-name="Capa 2"><g id="Capa_1-2" data-name="Capa 1"><path class="cls-1" d="M177.82,124.69c.09,29.72-43.22,34.61-50.24,6.46h-.28c7,28.55,51,23.54,50.8-6.5A25.84,25.84,0,0,0,154.77,99v.27A25.53,25.53,0,0,1,177.82,124.69Z"/><polygon class="cls-2" points="134.77 32.15 134.77 49.15 154.77 49.15 134.77 32.15"/><path class="cls-3" d="M126.47,124.67a25.69,25.69,0,0,0,.83,6.48h.28c-4.73-16.84,9.94-34,27.19-31.91V99A25.83,25.83,0,0,0,126.47,124.67Z"/><path class="cls-3" d="M122.78,126c-1.1-17.21,14.8-32.62,32-30.69V55.15c-26.56,1.69-26.62-1.94-26-27H83.48a7.72,7.72,0,0,0-7.71,7.72v85.71a9.56,9.56,0,0,0,9.57,9.57h38.18A37.49,37.49,0,0,1,122.78,126Zm-38-65.81h62a2,2,0,0,1,0,4h-62C82.19,64.19,82.16,60.11,84.77,60.15Zm0,10h62a2,2,0,0,1,0,4h-62C82.19,74.19,82.16,70.11,84.77,70.15Zm0,10h62a2,2,0,0,1,0,4h-62C82.19,84.19,82.16,80.11,84.77,80.15Zm0,10h62a2,2,0,0,1,0,4h-62C82.19,94.19,82.16,90.11,84.77,90.15Zm33,14c-1.17-.87-36.91,2.17-35-2-2-4.15,34-1.13,35-2C120.35,100.11,120.37,104.19,117.77,104.15Z"/><path class="cls-4" d="M146.77,64.15c2.57,0,2.6-4,0-4h-62c-2.58,0-2.61,4,0,4"/><path class="cls-4" d="M146.77,74.15c2.57,0,2.6-4,0-4h-62c-2.58,0-2.61,4,0,4"/><path class="cls-5" d="M181.72,123.06c-.5-14.32-12.65-26.87-26.95-27.79V99a25.85,25.85,0,0,1,23.33,25.69c.16,30-43.81,35-50.8,6.49h-3.78C131.58,165.91,183.45,158.71,181.72,123.06Z"/><path class="cls-5" d="M126.47,124.67A25.83,25.83,0,0,1,154.77,99v-3.7c-19.19-2.24-36.09,17.2-31.25,35.88h3.78A25.69,25.69,0,0,1,126.47,124.67Z"/><path class="cls-6" d="M151.83,150.19c32.21.24,35.07-47.44,2.94-50.95v7.93c4.36.69,7,3.3,8.28,7.56L157.52,117a7.81,7.81,0,0,0-2.75-4v7.53c10.59,1.64,13,17,2.12,20.06-4,.18-2.25,2.37-2.58,5.29h-4v-4.76c-5.55-.59-8.59-3.89-9.8-9.2l3-.79H127.58A25.56,25.56,0,0,0,151.83,150.19Z"/><path class="cls-6" d="M151.87,135.55c4.35,1.06,7.18-5.28,2.9-6.92v2.52h-7.88A5.2,5.2,0,0,0,151.87,135.55Z"/><path class="cls-6" d="M149.38,113.8c-2.72,4,2.46,5.7,5.39,6.75V113A4,4,0,0,0,149.38,113.8Z"/><path class="cls-6" d="M146.65,130.33l.24.82h7.88v-2.52c-5.22-2.28-12.81-3.77-13.09-10.74a9.61,9.61,0,0,1,8.57-10.82V103.4h4.05v3.68c.16,0,.31.07.47.09V99.24c-17.25-2-31.92,15.07-27.19,31.91C130.06,131.05,144.62,131.61,146.65,130.33Z"/><path class="cls-7" d="M156.87,115.53c.25.48.44,1,.65,1.48l5.53-2.28c-1.26-4.26-3.92-6.87-8.28-7.56V113A6,6,0,0,1,156.87,115.53Z"/><path class="cls-7" d="M154.92,128.69c7.28,5.76-6.73,10.76-8,2.46a17.32,17.32,0,0,0-6.41.79c1.21,5.31,4.25,8.61,9.8,9.2v4.76h4c.33-3-1.4-5.1,2.58-5.29,10.9-3.07,8.47-18.43-2.12-20.06v8.08Z"/><path class="cls-7" d="M146.65,130.33l-3.14.82h3.38Z"/><path class="cls-7" d="M154.3,103.4h-4.05v3.67a9.61,9.61,0,0,0-8.57,10.82c.28,7,7.87,8.45,13.09,10.74v-8.08c-9.08-1.75-7-10.38,0-7.53v-5.85c-.16,0-.31-.07-.47-.09Z"/><path class="cls-8" d="M51,26.15c-.55,32.21-48.45,32.2-49,0C2.55-6,50.45-6,51,26.15Z"/><path class="cls-4" d="M29.66,39.65H24.23V24.78c0-.41,0-.91,0-1.52s0-1.22.06-1.86,0-1.22.07-1.73c-.13.15-.39.41-.79.78s-.76.7-1.09,1l-3,2.38-2.62-3.27L25.19,14h4.47Z"/></g></g></svg>