<svg xmlns="http://www.w3.org/2000/svg" viewBox="0 0 188.77 173.28"><defs><style>.cls-1{fill:#ef932b;}.cls-2{fill:#fedd59;}.cls-3{fill:#f59320;}.cls-4{fill:none;stroke:#ff8b1a;stroke-width:3px;}.cls-4,.cls-6{stroke-miterlimit:10;}.cls-5{fill:#ff8b1a;}.cls-6{fill:#f49221;stroke:#fedd59;stroke-width:4px;}.cls-7{fill:#fff;}</style></defs><g id="Capa_2" data-name="Capa 2"><g id="Capa_1-2" data-name="Capa 1"><path class="cls-1" d="M103.34,132.8c-1-56.14,81-60.16,85.42-4.2C190,185.39,107.77,189.4,103.34,132.8Zm80.17-1.9c-.33-48.95-74.6-48.92-74.82,0C109.46,179.85,182.5,180.28,183.51,130.9Z"/><path class="cls-2" d="M146.89,93.89c-48.61-.27-50.31,72.24-1.45,74C193.79,168.06,195.6,95.8,146.89,93.89Zm15,52.49c-2.19,5.11-7.06,7.7-12.4,8.31-1.15,1.67-.08,4.86-.43,7H143.2V154.8c-8-.86-12.46-5.64-14.2-13.34l8.93-2.33c.4,10.27,18.33,10.06,14.14-.63-4.12-3.89-10.66-4.3-15.38-7.48-10.84-6.4-6.13-25,6.46-25.6V100.1H149v5.34c6.74.81,10.8,4.69,12.7,11.09-2.69,1.11-5.34,2.18-8,3.3-3.05-12.39-19.18-5.12-10.2,2.49C154.47,126.15,168.07,132.28,161.86,146.38Z"/><path class="cls-3" d="M161.86,146.38c-2.19,5.11-7.06,7.7-12.4,8.31-1.15,1.67-.08,4.86-.43,7H143.2V154.8c-8-.86-12.46-5.64-14.2-13.34l8.93-2.33c.4,10.27,18.33,10.06,14.14-.63-4.12-3.89-10.66-4.3-15.38-7.48-10.84-6.4-6.13-25,6.46-25.6V100.1H149v5.34c6.74.81,10.8,4.69,12.7,11.09-2.69,1.11-5.34,2.18-8,3.3-3.05-12.39-19.18-5.12-10.2,2.49C154.47,126.15,168.07,132.28,161.86,146.38Z"/><path class="cls-4" d="M113.37,57.3C185.74,67,139,110.22,89.82,96.47,41.05,80.33,82.18,53.91,113.37,57.3ZM105.8,91.87h6.54v-3c5-.14,20.72-2.24,14.17-9.64-6.6-4.85-17.2-1.91-23.17-6.84,2.42-3.62,9.08-2.85,12.38-.65,3.62,2.32,7,.13,10.89-.15-4-4.22-9.18-4.44-14.29-5V64.28H105.8v2.3c-4.59.21-18.09,2.33-12.66,9,5.08,3.61,11.78,3.17,17.64,4.63,1.9.4,7.77,1,4.66,3.81-4.22,1.81-10.54,1.76-14.3-1-3.09-2.66-7.41-.09-11.07-.28l-.16.33c3.92,4.72,10.17,5.26,15.89,5.7Z"/><path class="cls-4" d="M104.73,168.13c-13.59-1.38-39.87-5.73-36.47-24.3,11.2,11.65,28.62,14.31,44.11,13.74a3.17,3.17,0,0,1,2.94,1.22c2.49,3.37,6.31,5.32,9.31,8C117.92,167.62,111.45,168.42,104.73,168.13Z"/><path class="cls-4" d="M123.63,101.06c-5.17,2.9-8.37,8-12.56,11.59-15.25.14-45.43-3.76-43-23.91C83,102.23,104.54,104.06,123.63,101.06Z"/><path class="cls-4" d="M68,130.18C78.36,139.9,92,143,105.8,143.72c3.34,1.57,3.55,7.49,5.89,10.48C96.13,154.26,66.24,151.14,68,130.18Z"/><path class="cls-4" d="M109.62,116.17c-1.75,3.24-1.87,7.65-4,10.26-13.76-.85-40.48-5.37-37.41-23.94C79.13,113.1,94.87,116.18,109.62,116.17Z"/><path class="cls-4" d="M68.12,116.45C78.33,126,92,129.15,105.54,129.92l.47,10.43C92.06,139.57,65.2,134.79,68.12,116.45Z"/><path class="cls-5" d="M105.8,91.87v-3c-5.72-.44-12-1-15.89-5.7l.16-.33c3.66.19,8-2.39,11.07.28,3.77,2.72,10.08,2.77,14.3,1,3.11-2.82-2.77-3.41-4.66-3.81-5.86-1.46-12.56-1-17.64-4.63-5.43-6.74,8.06-8.82,12.66-9v-2.3h6.52V66.6c5.11.55,10.25.77,14.29,5-3.94.28-7.27,2.47-10.88.15-3.31-2.2-10-3-12.39.65,6,4.93,16.56,2,23.17,6.84,6.54,7.41-9.21,9.47-14.17,9.64v3Z"/><path class="cls-6" d="M51,26.15c-.55,32.21-48.45,32.2-49,0C2.55-6,50.45-6,51,26.15Z"/><path class="cls-7" d="M18.78,39.65l9.65-21.12H15.75V14H34.19v3.42L24.47,39.65Z"/></g></g></svg>