<svg xmlns="http://www.w3.org/2000/svg" viewBox="0 0 197.15 143.55"><defs><style>.cls-1,.cls-2{fill:#f49221;}.cls-2{stroke:#fedd59;stroke-miterlimit:10;stroke-width:4px;}.cls-3{fill:#fff;}</style></defs><g id="Capa_2" data-name="Capa 2"><g id="Capa_1-2" data-name="Capa 1"><path class="cls-1" d="M107.06,17.65c4.63,5.61,3.67,19.29,5.94,26.85.67,2.38-2.33,4.76-4.27,3.09-3.56-7-2.92-15.9-4.83-23.55C103.09,21.1,103,17.18,107.06,17.65Z"/><path class="cls-1" d="M133.14,17.65c4.38,3.37-1.82,21.23-1.58,27.43-.36,4.48-6.46,3.64-5.6-.75C127.92,39.25,126.54,16.13,133.14,17.65Z"/><path class="cls-1" d="M165.55,116.21c2.33,7.68-.43,11.66-8.58,12.38-.27,6.37-7.54,10.58-13.13,7.44-2.08,5-7.06,7.55-12.35,5.16a2.73,2.73,0,0,0-2.94.3c-5.38,3.57-11.54,2-16.84-.83-5.06,1.45-9.79,2.86-12.95-3-5.17-1.52-8-.17-11-6.49-4.26.26-8.5-1.33-10-5.64a1.32,1.32,0,0,0-1.37-1,7.73,7.73,0,0,1-7.58-7.71c-.69-2.66-4.52-3.07-6.59-4.82-1.25,2.09-3,1.93-4.94,1.3-4.1-2.53-19.76-2.7-17.64-8.93L56.6,57c.86-2.4,2.3-3,4.63-2,6.69,2.68,13.44,6.38,19.71,9.1,7.89.06,16.27,2.45,24,1.12C114.91,57,129.05,55,140,62.75c10.17,5.81,21-1.77,29.42-7.5,2-1.27,3.61-.86,4.67,1.23q11.38,22.41,22.74,44.83c3,5.59-14.64,9.14-18.27,12.1-2.52,1.34-3.89-1-5.24-2.82ZM98.42,71.28c-33.23-3.17-11.11-5-33.36,35.79l6.17,3.57c3.11-5.42,10-6.61,13.89-1.4.49.64.89.61,1.55.43,4.08-1.18,8,.82,10.16,4.34,7.36-2.29,10.32,1.72,13.21,7.51a8.56,8.56,0,0,1,5.77,3.41c5.85-2.71,12.66,9.93,18.77,11.35,4.12.95,4.53-4.21,1.61-6.09-3.3-4.42-26.32-18.78-22.26-22.94,4.48-6.2,30.42,28.62,36,23.5,8.3-6.21-30.36-24.62-25.2-30.83,4.36-6.89,36.41,35.69,35.76,19.22C149.29,107,135.91,96.65,124,85.1a6.29,6.29,0,0,0-5.84-1.48c-3.07,1.35-4,5.53-6.59,7.69C105.78,99,88.73,96.75,93,84.92,95.64,80.6,97.73,76.47,98.42,71.28Zm71.67,34.59A128.67,128.67,0,0,1,155,70.6c-.22-.86-.62-1-1.4-.89-9.5,1.69-13.21.5-21.19-4.47-8.89-4.29-17.64-.38-24.94,5.18-5.28,2.57-4.11,8.33-6.63,12.6-1.51,2.08-5.2,6.73-.4,7.14,7.37.92,9.31-7.54,13.7-11.25,5.12-1.86,9.83-1.63,14.14,2.39,11.06,10.35,22.45,20.28,33.52,30.62Zm-124.22-2c17.41,5.74,11.07,4,19.57-11A101.1,101.1,0,0,0,73,68c.33-3.13-9.27-5.05-11.88-6.75Zm144.68-2.37-20.31-40.1c-2.5,2.42-9.8,4.45-9.8,7.65a127,127,0,0,0,7.82,21.47C178.79,108.92,173.75,109.76,190.55,101.55Zm-86.81,21.17c-2-9-8.5.46-10.32,4.38-1.52,3.47,3.4,6.17,5.67,2.92C100.63,127.72,102.85,125.3,103.74,122.72ZM92,118.37c.23-3-3.54-4.58-5.3-2.32-1.59,2.59-6.31,6.62-2.24,9.13C88.46,126.85,90.18,120.79,92,118.37Zm22.64,17.33c3.56,2.37,8.11,2.88,10.54,1.08l-7.83-6.49Zm-3.29-6.84a2.34,2.34,0,0,0-3.64-.93c-1.43,2.15-6.85,7.14-2.15,8.49.62.05,1.11,0,1.17-.86C107.18,132.69,111.43,132.69,111.39,128.86ZM81.15,113.51c-2.42-4.12-4.81-.64-6.33,2.08a2.1,2.1,0,0,0,.64,2.89C78.39,120.05,80,115.62,81.15,113.51Z"/><path class="cls-1" d="M155.73,29.56c2,1.3,4,2.73,2.32,5-3.16,4.9-6.28,9.83-9.45,14.72a2.86,2.86,0,1,1-4.78-3.06C147.92,40.75,150.32,33.94,155.73,29.56Z"/><path class="cls-1" d="M94.62,47.77c-2.45,8.93-8.54-3.18-10.81-6.29-1.35-2.34-5.46-6-2.29-8.31C85.74,30.09,92.24,44.71,94.62,47.77Z"/><path class="cls-2" d="M51,26.15c-.55,32.21-48.45,32.2-49,0C2.55-6,50.45-6,51,26.15Z"/><path class="cls-3" d="M34.77,34.33H31.68v5.32H26.37V34.33h-11V30.55L26.67,14h5V30.11h3.09Zm-8.4-4.22V25.75c0-.41,0-.9,0-1.46s0-1.12.06-1.69.05-1.06.08-1.5l.06-.92h-.14c-.22.48-.46.94-.7,1.4s-.54.92-.87,1.41l-4.71,7.12Z"/></g></g></svg>