<svg xmlns="http://www.w3.org/2000/svg" viewBox="0 0 103.81 69.34"><defs><style>.cls-1,.cls-4{fill:#ff8b1a;}.cls-1,.cls-3{fill-rule:evenodd;}.cls-2,.cls-3{fill:#12100c;}.cls-5{fill:none;stroke:#12100c;stroke-linejoin:round;stroke-width:0.37px;}.cls-6{fill:#1d1d1b;}</style></defs><g id="Capa_2" data-name="Capa 2"><g id="Capa_1-2" data-name="Capa 1"><path class="cls-1" d="M6.33,49.17H97.47a1.67,1.67,0,0,1,1.67,1.66v9.26a1.67,1.67,0,0,1-1.67,1.66H6.33a1.67,1.67,0,0,1-1.66-1.66V50.83a1.67,1.67,0,0,1,1.66-1.66"/><polygon class="cls-1" points="12.39 12.75 17.98 9.7 17.98 47.09 12.39 47.09 12.39 12.75"/><polygon class="cls-2" points="44.3 20.88 42.12 23.78 39.95 20.88 36.72 20.88 40.67 26.15 40.67 28.68 43.57 28.68 43.57 26.15 47.53 20.88 44.3 20.88"/><rect class="cls-2" x="22.42" y="20.88" width="2.9" height="7.8"/><rect class="cls-2" x="22.42" y="29.9" width="8.92" height="17.18"/><path class="cls-1" d="M30.29,37.93a.57.57,0,1,1-.56.56.56.56,0,0,1,.56-.56"/><polygon class="cls-2" points="33.12 20.88 33.12 25.06 29.77 20.88 26.43 20.88 26.43 28.68 29.33 28.68 29.33 24.5 32.67 28.68 36.02 28.68 36.02 20.88 33.12 20.88"/><path class="cls-3" d="M48,34.69h3.41V38.1H48Zm-4.21,4.22h3.41v3.41H43.82Zm4.21,0h3.41v3.41H48Zm-4.21-4.22h3.41V38.1H43.82Z"/><polygon class="cls-4" points="39.19 34.69 39.19 37.24 35.49 37.24 35.49 34.69 32.67 34.69 32.67 42.3 35.49 42.3 35.49 39.74 39.19 39.74 39.19 42.3 42.01 42.3 42.01 34.69 39.19 34.69"/><path class="cls-2" d="M57.93,42.4a5.21,5.21,0,0,0,3.49-1,3.56,3.56,0,0,0,1.18-2.88v-3.8H59.77v3.8c0,1-.61,1.52-1.84,1.52s-1.85-.5-1.85-1.52v-3.8H53.25v3.8a3.6,3.6,0,0,0,1.18,2.88,5.22,5.22,0,0,0,3.5,1"/><path class="cls-2" d="M67.92,39.42a5.68,5.68,0,0,1,1.49.16.31.31,0,0,1,.24.3c0,.13-.09.22-.25.26a7.42,7.42,0,0,1-1.48.09,5.73,5.73,0,0,1-1.51-.12.45.45,0,0,1-.34-.48H63.25a2.27,2.27,0,0,0,1,2.06,7,7,0,0,0,3.68.71,7.61,7.61,0,0,0,3.68-.65,2,2,0,0,0,1-1.81,1.9,1.9,0,0,0-.86-1.78,9,9,0,0,0-3.81-.7,10.69,10.69,0,0,1-1.48-.11c-.16,0-.24-.12-.24-.25s.08-.21.24-.26a7.71,7.71,0,0,1,1.48-.08,5.06,5.06,0,0,1,1.38.12.45.45,0,0,1,.35.47h2.82a2.29,2.29,0,0,0-.93-2.05,6.71,6.71,0,0,0-3.62-.72,8,8,0,0,0-3.68.62,1.91,1.91,0,0,0-1,1.78,1.84,1.84,0,0,0,.85,1.76,8.9,8.9,0,0,0,3.82.68"/><polygon class="cls-2" points="73.35 34.69 73.35 42.3 81.39 42.3 81.39 40.12 76.17 40.12 76.17 39.47 81.28 39.47 81.28 37.52 76.17 37.52 76.17 36.87 81.39 36.87 81.39 34.69 73.35 34.69"/><rect class="cls-2" x="67.56" y="11.34" width="0.54" height="6.41"/><path class="cls-1" d="M67.92,21.67a2.75,2.75,0,0,1,2.52,2.93,2.55,2.55,0,1,1-5,0,2.75,2.75,0,0,1,2.52-2.93"/><path class="cls-2" d="M69,17.75c0,.21-.56.38-1.25.38s-1.26-.17-1.26-.38.56-.37,1.26-.37,1.25.17,1.25.37"/><polygon class="cls-2" points="73.32 24.93 62.51 24.93 67.83 18.41 73.32 24.93"/><path class="cls-2" d="M68.72,19.4V18.2c0-.35-.38-.65-.89-.65s-.88.3-.88.65v1.2Z"/><path d="M2.9,34.4l-.1-.2.12.08.37-.49-.08-.16.13,0L4,33.09l-.07-.28.15.19a1.12,1.12,0,0,1,.27-.2v-.13l.1.08a3.18,3.18,0,0,1,.78-.44l0-.19.07.09a1.58,1.58,0,0,1,.52-.11H6L6,32l0,.11a1.45,1.45,0,0,1,.23,0h0l-.1,0h0a1.35,1.35,0,0,0-.65.62h.11l-.18.11,0,.08a4.08,4.08,0,0,0-.34.89l.15,0-.14.1h.07s-.23.12-.12.78h.08l-.11.19.1,0a4.7,4.7,0,0,0,.36,1.48c.21-.87.4-1,.4-1l-.07-.11.11,0,.2-.61-.09,0,.2-.11.13-.28-.12-.11.22.07.41-.91-.11-.2.18.15,0-.06.08.26.05,0a5.31,5.31,0,0,1,.26,1.34l.09,0s0,.09,0,.14h0a11.23,11.23,0,0,1,.07,1.47h.07a1.34,1.34,0,0,0,0,.21,9.85,9.85,0,0,1-.16,1.52l.08,0,0,.31-.12,1.28h.07v0h0v.09A2.63,2.63,0,0,1,7.24,41l.17,0a3.14,3.14,0,0,1-.25,1l.13,0q0,.08,0,.18h0a6,6,0,0,1-.39,1.3l.11,0-.41,1.58h0l0,.09-.12.43a1.88,1.88,0,0,0-.25-.49,1.4,1.4,0,0,1,.12.75s-.07-.45-.4-.51c.22.11.34.75.34.75-.12-.38-.81-.57-.81-.57s.76.57.73.9a.67.67,0,0,0-.49-.42,1.16,1.16,0,0,1,.34.65c-.07-.18-.45-.7-.92-.53a.86.86,0,0,1,.76.65,2.89,2.89,0,0,0-.79.08,13.61,13.61,0,0,0,2.21.09A13.61,13.61,0,0,0,9.49,47a2.91,2.91,0,0,0-.92-.08,1.43,1.43,0,0,1,.34-.28,1,1,0,0,0-.66.2,2.18,2.18,0,0,1,.57-.69,1.15,1.15,0,0,0-.73.32c0-.05,0-.1,0-.15a1.91,1.91,0,0,1,.25-.56.84.84,0,0,0-.23.12c0-.15,0-.31,0-.45h0v-.25c0-.29.09-.88.11-1.31h0a4.17,4.17,0,0,0,0-1.41h0l0-.11.17,0a4.41,4.41,0,0,0-.05-1.14h0l.2,0s0-.84-.09-1.28h0v-.14l.15-.06s0-.79-.06-1.3h0s0-.09,0-.13v-.05l0,0a7.09,7.09,0,0,0-.2-1.72H8.4a16.38,16.38,0,0,0-.29-1.71h0V34.7l.09-.07s-.28-.85-.47-1.29h0v0l0,0,.08,0L7.64,33l.08,0,.12-.2,0,.26.19.19.16-.18-.07.22a5.62,5.62,0,0,1,.62.84l.14-.08,0,.13a4.57,4.57,0,0,1,.32.66,2.44,2.44,0,0,1,.29-.15l-.1.21a1.83,1.83,0,0,1,.66,1,4.4,4.4,0,0,0-.25-2l-.11,0,0-.09a2.47,2.47,0,0,0-.5-.88H9l0-.13-.54-.64-.17.07v-.11L8.2,32H8.1l0,0,0,0a1,1,0,0,1,.38-.27l0-.23.14.16a2.06,2.06,0,0,1,.54-.31l0-.21.13.11a3.27,3.27,0,0,1,.5-.16l.05-.2,0,.11a1.68,1.68,0,0,1,1.06-.11s-.3-.67-1.6-.82c-.18.09-.21.15-.21.15l0-.06s-.88.08-1,.44l0-.08-.35.23,0-.12H7.63l.16-.06L8,29.69l-.16-.08.23,0a3.36,3.36,0,0,1,.53-.75l-.11-.1.14.07a2.91,2.91,0,0,1,.52-.58l-.07-.15.12.1s.3-.64.6-.71a5.55,5.55,0,0,0-1.29.14v.12l-.07-.05a3.13,3.13,0,0,0-.81.52c-.06.17-.08.25-.08.25l-.07-.15a2.1,2.1,0,0,0-.5.7.44.44,0,0,1,0,.2L7,29.12a.57.57,0,0,0-.11.22l0,.09v0a.3.3,0,0,0,0,.1h0a.68.68,0,0,1,0,.14v0c0,.05,0,.09,0,.15V30a8.66,8.66,0,0,0-.46-.75l-.24,0,.07-.09a1.15,1.15,0,0,0-.25-.3l-.15,0,.1-.16a2,2,0,0,0-.77-.38l-.16.15A1.65,1.65,0,0,1,5,28.35a2,2,0,0,0-2,.69,1.77,1.77,0,0,1,1,.12l.23-.08L4,29.19l.53.32.33-.13a1.71,1.71,0,0,1-.16.16c.12.08.56.51.56.51l.36-.17s0,.06-.18.23a.3.3,0,0,1,.23.13l.18-.07-.15.15a2,2,0,0,1,.41.51l0,.05a.25.25,0,0,1,0,.08l0,0h.15l-.07.09a2.33,2.33,0,0,1,.54.66l0,0,0,0-.06,0,0,0-.07,0-.06,0-.08,0-.06,0-.15-.06-.09,0-.07,0h0a4.08,4.08,0,0,0-.89-.12v.16l-.11-.12a2.77,2.77,0,0,0-1,.4l.12.19L4,31.68s-.62.34-.83.48l0,.19L3,32.27a2.34,2.34,0,0,0-.76.92c.1.2,0,.2,0,.2a2,2,0,0,0,0,1.91,2.31,2.31,0,0,1,.62-.9M7.1,32ZM7,31.92a.28.28,0,0,0,0-.09c0,.05,0,.1,0,.15l0-.08ZM8.16,41,6.75,30.13ZM6.75,30.13v0h0Z"/><path class="cls-4" d="M100.91,34.4l.09-.2-.12.08-.36-.49.08-.16-.14,0-.63-.58.08-.28-.16.19a1.12,1.12,0,0,0-.27-.2v-.13l-.09.08a3.18,3.18,0,0,0-.78-.44l0-.19-.07.09A1.48,1.48,0,0,0,98,32.1h-.17L97.76,32l0,.11a1.4,1.4,0,0,0-.23,0h0l.1,0h0a1.36,1.36,0,0,1,.66.62h-.11l.18.11,0,.08a3.92,3.92,0,0,1,.35.89l-.16,0,.15.1h-.07s.22.12.12.78h-.09l.11.19-.09,0a5,5,0,0,1-.36,1.48c-.22-.87-.41-1-.41-1l.07-.11-.11,0-.2-.61.1,0-.2-.11-.14-.28.12-.11-.21.07-.42-.91.12-.2-.19.15,0-.06c0,.1,0,.19-.07.26l0,0a5.31,5.31,0,0,0-.26,1.34l-.1,0s0,.09,0,.14h0a9.72,9.72,0,0,0-.07,1.47h-.07a1.62,1.62,0,0,0,0,.21,11.34,11.34,0,0,0,.15,1.52l-.08,0,0,.31.13,1.28h-.08v0h0v.09A2.64,2.64,0,0,0,96.57,41l-.17,0a2.7,2.7,0,0,0,.25,1l-.14,0c0,.05,0,.11,0,.18h0a6,6,0,0,0,.39,1.3l-.12,0,.41,1.58h0l0,.09.12.43a2,2,0,0,1,.26-.49,1.29,1.29,0,0,0-.12.75s.07-.45.4-.51c-.22.11-.34.75-.34.75.12-.38.81-.57.81-.57s-.76.57-.74.9a.69.69,0,0,1,.49-.42,1.16,1.16,0,0,0-.34.65c.07-.18.45-.7.92-.53-.47,0-.68.45-.75.65a2.77,2.77,0,0,1,.78.08,13.61,13.61,0,0,1-2.21.09A13.61,13.61,0,0,1,94.31,47a3,3,0,0,1,.93-.08,2.06,2.06,0,0,0-.34-.28,1,1,0,0,1,.65.2,2.06,2.06,0,0,0-.56-.69,1.12,1.12,0,0,1,.72.32c0-.05,0-.1,0-.15a2.21,2.21,0,0,0-.25-.56.78.78,0,0,1,.22.12c0-.15,0-.31,0-.45h0v-.25c0-.29-.09-.88-.11-1.31h0a4.34,4.34,0,0,1,0-1.41h0a.49.49,0,0,1,0-.11l-.18,0a4.67,4.67,0,0,1,.06-1.14h0l-.21,0s0-.84.1-1.28h0v-.14l-.15-.06s0-.79.06-1.3h0s0-.09,0-.13v-.05l0,0a6.86,6.86,0,0,1,.19-1.72H95.4a15,15,0,0,1,.3-1.71h0v0l0,0-.09-.07s.28-.85.46-1.29h0l0,0,0,0-.09,0,.11-.2-.08,0-.11-.2v.26l-.18.19-.17-.18.08.22a5.62,5.62,0,0,0-.62.84l-.15-.08,0,.13a3.71,3.71,0,0,0-.32.66,2.44,2.44,0,0,0-.29-.15l.1.21a1.83,1.83,0,0,0-.66,1,4.31,4.31,0,0,1,.24-2l.12,0,0-.09a2.47,2.47,0,0,1,.5-.88h.13l0-.13.55-.64.16.07v-.11L95.6,32h.1l0,0,0,0a1,1,0,0,0-.37-.27l0-.23-.15.16a2.06,2.06,0,0,0-.54-.31l0-.21-.13.11A3.14,3.14,0,0,0,94,31l0-.2,0,.11a1.64,1.64,0,0,0-1.05-.11s.3-.67,1.6-.82c.17.09.2.15.2.15l0-.06s.89.08,1,.44l0-.08.35.23,0-.12h.16L96,30.48l-.24-.79.15-.08-.22,0a3.78,3.78,0,0,0-.53-.75l.1-.1-.13.07a3,3,0,0,0-.53-.58l.07-.15-.11.1s-.31-.64-.61-.71a5.51,5.51,0,0,1,1.29.14v.12l.08-.05a3,3,0,0,1,.8.52,2.08,2.08,0,0,1,.09.25l.07-.15a2,2,0,0,1,.49.7.44.44,0,0,0,0,.2l.12-.13a.83.83,0,0,1,.11.22l0,.09v0a.44.44,0,0,0,0,.1h0a.68.68,0,0,1,0,.14v0c0,.05,0,.09,0,.15v0a.38.38,0,0,0,0,.1c.19-.36.45-.75.45-.75l.25,0-.07-.09a1,1,0,0,1,.25-.3l.14,0-.1-.16a2.06,2.06,0,0,1,.77-.38l.17.15a1.65,1.65,0,0,0-.06-.19,2,2,0,0,1,2,.69,1.8,1.8,0,0,0-1,.12l-.23-.08.09.11-.54.32-.33-.13a1.42,1.42,0,0,0,.17.16,6.59,6.59,0,0,0-.56.51l-.37-.17s0,.06.19.23c-.19,0-.23.13-.23.13l-.19-.07.16.15a1.77,1.77,0,0,0-.41.51l0,.05,0,.08v0h-.16l.07.09a2.51,2.51,0,0,0-.54.66l0,0,0,0,.06,0,0,0,.06,0,.07,0,.07,0,.07,0,.15-.06.09,0,.06,0h0a4.06,4.06,0,0,1,.88-.12v.16l.12-.12a2.7,2.7,0,0,1,1,.4l-.11.19.23-.15s.62.34.83.48l0,.19.13-.08a2.25,2.25,0,0,1,.76.92c-.09.2,0,.2,0,.2a2,2,0,0,1,0,1.91,2.23,2.23,0,0,0-.61-.9M96.7,32Zm.06-.06s0-.06,0-.09,0,.1,0,.15l0-.08ZM95.64,41l1.42-10.87Zm1.42-10.87v0h0Z"/><polygon class="cls-3" points="91.41 20.31 85.83 17.27 85.83 47.09 91.41 47.09 91.41 20.31"/><polygon class="cls-1" points="0 24.27 9.6 24.27 51.9 4.49 51.9 0 0 24.27"/><polygon class="cls-3" points="103.81 24.27 94.21 24.27 51.9 4.49 51.9 0 103.81 24.27"/><path class="cls-5" d="M80.68,53.25l.93-1.55h.8l-1.26,1.55Zm-1.11.51v4.06H83V53.76h.78v3.6a1.27,1.27,0,0,1-.23.88,1.19,1.19,0,0,1-.87.24h-2.8a1.19,1.19,0,0,1-.87-.24,1.24,1.24,0,0,1-.23-.88v-3.6ZM58.94,58.48V53.76h3.81a1.13,1.13,0,0,1,.76.21.91.91,0,0,1,.23.7v1.06a.89.89,0,0,1-.23.69,1.08,1.08,0,0,1-.76.22h-.7l2.16,1.84H63l-1.92-1.84H59.73v1.84Zm3.5-4.11H59.73V56h2.71a.57.57,0,0,0,.4-.1.54.54,0,0,0,.11-.38v-.68a.54.54,0,0,0-.11-.38A.6.6,0,0,0,62.44,54.37ZM39.61,58.48V53.76h4.55v.63H40.4V55.7h2.29v.63H40.4v1.5h3.79v.65Zm-19.6,0V53.76h3.8a1.11,1.11,0,0,1,.76.21.91.91,0,0,1,.24.7v1.06a.89.89,0,0,1-.24.69,1.06,1.06,0,0,1-.76.22h-3v1.84Zm3.49-4.11H20.79V56H23.5a.52.52,0,0,0,.4-.12.49.49,0,0,0,.11-.38v-.66a.51.51,0,0,0-.11-.38A.56.56,0,0,0,23.5,54.37Z"/><path class="cls-2" d="M80.68,53.25l.93-1.55h.8l-1.26,1.55Zm-1.11.51v4.06H83V53.76h.78v3.6a1.27,1.27,0,0,1-.23.88,1.19,1.19,0,0,1-.87.24h-2.8a1.19,1.19,0,0,1-.87-.24,1.24,1.24,0,0,1-.23-.88v-3.6ZM58.94,58.48V53.76h3.81a1.13,1.13,0,0,1,.76.21.91.91,0,0,1,.23.7v1.06a.89.89,0,0,1-.23.69,1.08,1.08,0,0,1-.76.22h-.7l2.16,1.84H63l-1.92-1.84H59.73v1.84Zm3.5-4.11H59.73V56h2.71a.57.57,0,0,0,.4-.1.54.54,0,0,0,.11-.38v-.68a.54.54,0,0,0-.11-.38A.6.6,0,0,0,62.44,54.37ZM39.61,58.48V53.76h4.55v.63H40.4V55.7h2.29v.63H40.4v1.5h3.79v.65Zm-19.6,0V53.76h3.8a1.11,1.11,0,0,1,.76.21.91.91,0,0,1,.24.7v1.06a.89.89,0,0,1-.24.69,1.06,1.06,0,0,1-.76.22h-3v1.84Zm3.49-4.11H20.79V56H23.5a.52.52,0,0,0,.4-.12.49.49,0,0,0,.11-.38v-.66a.51.51,0,0,0-.11-.38A.56.56,0,0,0,23.5,54.37Z"/><path class="cls-6" d="M43.4,68.05a.54.54,0,0,0,.5-.29,1.67,1.67,0,0,0,.16-.75,1.32,1.32,0,0,0-.17-.7A.51.51,0,0,0,43.4,66a.54.54,0,0,0-.5.29,1.6,1.6,0,0,0-.15.74,1.36,1.36,0,0,0,.16.71.51.51,0,0,0,.49.28m0,.18a1.1,1.1,0,0,1-.6-.16,1.15,1.15,0,0,1-.42-.43,1.28,1.28,0,0,1,0-1.22,1.2,1.2,0,0,1,.45-.42,1.1,1.1,0,0,1,.54-.15A1.13,1.13,0,0,1,44,66a1.21,1.21,0,0,1,.41.43,1.21,1.21,0,0,1,0,1.22,1.23,1.23,0,0,1-.45.43A1.21,1.21,0,0,1,43.4,68.23Zm-2-3a.32.32,0,0,1-.23-.09.27.27,0,0,1-.1-.22.26.26,0,0,1,.12-.2.39.39,0,0,1,.26-.09.25.25,0,0,1,.2.09.27.27,0,0,1,.08.22.25.25,0,0,1-.09.2A.34.34,0,0,1,41.38,65.27ZM40.7,69.2s-.06,0-.08-.07v0s0-.06,0-.07a.68.68,0,0,0,.35-.29,1.38,1.38,0,0,0,.15-.46,7.26,7.26,0,0,0,0-.74v-1a1,1,0,0,0,0-.19.12.12,0,0,0-.06-.1.28.28,0,0,0-.18,0h-.09a.11.11,0,0,1,0-.09s0,0,0,0a.09.09,0,0,1,.06,0,2.38,2.38,0,0,0,.54-.13l.11,0h0s.08,0,.08.1v1.76a2,2,0,0,1-.22,1,1,1,0,0,1-.71.51Zm-2-1a.69.69,0,0,1-.74-.74v-.93a1,1,0,0,0,0-.19.12.12,0,0,0-.06-.1.28.28,0,0,0-.18,0h-.09a.11.11,0,0,1,0-.09s0,0,0-.05a.09.09,0,0,1,.06,0,2.38,2.38,0,0,0,.54-.13l.11,0h0s.08,0,.08.1v1.51a.47.47,0,0,0,.14.36A.52.52,0,0,0,39,68a.68.68,0,0,0,.4-.12.59.59,0,0,0,.22-.23v-1c0-.08,0-.15,0-.19a.21.21,0,0,0-.06-.1.31.31,0,0,0-.19,0h-.09a.11.11,0,0,1,0-.09.08.08,0,0,1,0-.05l.06,0a2.38,2.38,0,0,0,.54-.13l.12,0h0c.06,0,.08,0,.08.1V67.7c0,.19.13.29.4.29,0,0,.08,0,.08.1s0,.07-.08.08l-.81.06a.05.05,0,0,1,0,0v-.36h0l-.24.21a1,1,0,0,1-.23.12A.9.9,0,0,1,38.75,68.23Zm-2.4,0a.06.06,0,0,1-.06,0,.1.1,0,0,1,0-.07s0-.07,0-.08h.09a.31.31,0,0,0,.19,0,.15.15,0,0,0,.06-.1,1,1,0,0,0,0-.19V65.22a.92.92,0,0,0,0-.19.14.14,0,0,0-.06-.11.28.28,0,0,0-.18,0l-.09,0s0,0,0-.08a.07.07,0,0,1,0-.06.06.06,0,0,1,.06,0,3.06,3.06,0,0,0,.54-.13l.11,0h0s.08,0,.08.09v3a1,1,0,0,0,0,.19.15.15,0,0,0,.06.1.31.31,0,0,0,.19,0h.09a.13.13,0,0,1,0,.08.1.1,0,0,1,0,.07.06.06,0,0,1-.06,0l-.52,0Zm-3.59,1.07a.61.61,0,0,1-.39-.13.44.44,0,0,1-.16-.33c0-.15,0-.25.12-.29a.53.53,0,0,1,.2-.06.32.32,0,0,1,.14,0s0,0,0,.07l0,0a.21.21,0,0,0,0,.14.27.27,0,0,0,.06.17.25.25,0,0,0,.18.08c.21,0,.42-.22.62-.65a.58.58,0,0,0,0-.1.35.35,0,0,0,0-.13c-.06-.15-.18-.43-.33-.83s-.25-.64-.34-.83a.79.79,0,0,0-.16-.27.34.34,0,0,0-.22-.09h0s0,0,0,0,0,0,0-.07,0-.06,0-.07l.08,0h.06A.82.82,0,0,1,33,66a.65.65,0,0,1,.29.35c.08.17.14.33.2.49.13.36.24.62.32.79h0l.49-1.31c0-.06,0-.1,0-.12a.07.07,0,0,0,0-.08l-.16,0H34A.13.13,0,0,1,34,66a.13.13,0,0,1,0-.06s0,0,.06,0l.48,0H35a.05.05,0,0,1,.05,0A.07.07,0,0,1,35,66a.13.13,0,0,1,0,.08H35a.57.57,0,0,0-.29.06.53.53,0,0,0-.17.24c-.07.19-.2.49-.37.91s-.29.73-.38.93a3.26,3.26,0,0,1-.42.74A.71.71,0,0,1,32.76,69.26ZM29.69,68a.65.65,0,0,0,.29-.06,1.06,1.06,0,0,0,.24-.19V66.41a.64.64,0,0,0-.19-.26.54.54,0,0,0-.36-.12.55.55,0,0,0-.35.12.75.75,0,0,0-.25.36,1.51,1.51,0,0,0-.09.55,1.16,1.16,0,0,0,.18.66A.63.63,0,0,0,29.69,68Zm-.17.25a1,1,0,0,1-.52-.15,1.13,1.13,0,0,1-.39-.42,1.41,1.41,0,0,1-.14-.62A1.22,1.22,0,0,1,29,66a1.11,1.11,0,0,1,.59-.16,1.06,1.06,0,0,1,.31,0,.66.66,0,0,1,.27.1h0v-.77c0-.08,0-.15,0-.19a.21.21,0,0,0-.06-.1.31.31,0,0,0-.19-.05h-.09a.11.11,0,0,1,0-.09.08.08,0,0,1,0,0l.06,0a2.38,2.38,0,0,0,.54-.13l.12,0h0c.06,0,.08,0,.08.1v3.08q0,.3.39.3c.06,0,.09,0,.09.08s0,.07-.09.08l-.79.06s0,0,0,0a.19.19,0,0,1,0-.08v-.2h0a1.21,1.21,0,0,1-.32.22A1,1,0,0,1,29.52,68.23ZM26.78,68a.65.65,0,0,0,.31-.08.65.65,0,0,0,.32-.56V67a2,2,0,0,0-.74.17.45.45,0,0,0-.22.42C26.45,67.85,26.56,68,26.78,68Zm-.16.27a.68.68,0,0,1-.49-.17.61.61,0,0,1,0-.89,1,1,0,0,1,.5-.21,6,6,0,0,1,.75-.07v-.4a.49.49,0,0,0-.13-.37.54.54,0,0,0-.39-.13.39.39,0,0,0-.27.1.33.33,0,0,0-.11.25.29.29,0,0,0,0,.14l.08.08.05,0s0,.05-.07.08a.25.25,0,0,1-.15,0,.3.3,0,0,1-.24-.11.47.47,0,0,1-.08-.26.41.41,0,0,1,.23-.39,1.19,1.19,0,0,1,.56-.12,1.3,1.3,0,0,1,.67.15.64.64,0,0,1,.26.58v1.16a.36.36,0,0,0,.06.2.21.21,0,0,0,.2.1h.05s0,0,0,.07,0,.07-.09.09l-.18,0a.51.51,0,0,1-.34-.11.41.41,0,0,1-.16-.29.69.69,0,0,1-.33.3A1,1,0,0,1,26.62,68.23ZM24.3,68a.67.67,0,0,0,.3-.06,1,1,0,0,0,.23-.19V66.41a.56.56,0,0,0-.19-.26.51.51,0,0,0-.35-.12.6.6,0,0,0-.36.12.81.81,0,0,0-.24.36,1.51,1.51,0,0,0-.09.55,1.16,1.16,0,0,0,.18.66A.61.61,0,0,0,24.3,68Zm-.17.25a1,1,0,0,1-.52-.15,1,1,0,0,1-.38-.42,1.29,1.29,0,0,1-.15-.62,1.23,1.23,0,0,1,.15-.59,1.18,1.18,0,0,1,.42-.44,1.07,1.07,0,0,1,.59-.16,1.15,1.15,0,0,1,.31,0,.79.79,0,0,1,.27.1h0v-.77a1,1,0,0,0,0-.19.12.12,0,0,0-.06-.1.28.28,0,0,0-.18-.05h-.09a.11.11,0,0,1,0-.09s0,0,0,0a.09.09,0,0,1,.06,0,2.38,2.38,0,0,0,.54-.13l.11,0h0c.05,0,.08,0,.08.1v3.08q0,.3.39.3c.05,0,.08,0,.08.08s0,.07-.08.08l-.8.06a.05.05,0,0,1,0,0v-.28h0a1,1,0,0,1-.69.3Zm-2-3a.32.32,0,0,1-.23-.09.27.27,0,0,1-.1-.22.26.26,0,0,1,.12-.2.39.39,0,0,1,.26-.09.25.25,0,0,1,.2.09.27.27,0,0,1,.08.22.25.25,0,0,1-.09.2A.34.34,0,0,1,22.17,65.27Zm-.49,2.92a.06.06,0,0,1-.06,0,.1.1,0,0,1,0-.07s0-.07,0-.08h.09a.28.28,0,0,0,.18,0,.12.12,0,0,0,.06-.1,1,1,0,0,0,0-.19V66.51a1,1,0,0,0,0-.19.12.12,0,0,0-.06-.1.28.28,0,0,0-.18,0h-.09a.11.11,0,0,1,0-.09s0,0,0,0a.09.09,0,0,1,.06,0,2.38,2.38,0,0,0,.54-.13l.11,0h0s.08,0,.08.1v1.74a1,1,0,0,0,0,.19.15.15,0,0,0,.06.1.31.31,0,0,0,.19,0h.09a.13.13,0,0,1,0,.08.1.1,0,0,1,0,.07.06.06,0,0,1-.06,0l-.52,0ZM20,68a.65.65,0,0,0,.29-.06,1.06,1.06,0,0,0,.24-.19V66.41a.64.64,0,0,0-.19-.26.56.56,0,0,0-.36-.12.55.55,0,0,0-.35.12.75.75,0,0,0-.25.36,1.51,1.51,0,0,0-.09.55,1.16,1.16,0,0,0,.18.66A.63.63,0,0,0,20,68Zm-.17.25a1,1,0,0,1-.52-.15,1.13,1.13,0,0,1-.39-.42,1.41,1.41,0,0,1-.14-.62,1.22,1.22,0,0,1,.56-1,1.19,1.19,0,0,1,.9-.12.79.79,0,0,1,.27.1h0v-.77c0-.08,0-.15,0-.19a.21.21,0,0,0-.06-.1.31.31,0,0,0-.19-.05h-.09a.11.11,0,0,1,0-.09.08.08,0,0,1,0,0,.09.09,0,0,1,.06,0,2.38,2.38,0,0,0,.54-.13l.12,0h0c.05,0,.08,0,.08.1v3.08q0,.3.39.3c.06,0,.09,0,.09.08s0,.07-.09.08l-.79.06s0,0,0,0a.19.19,0,0,1,0-.08v-.2h0a1.21,1.21,0,0,1-.32.22A1,1,0,0,1,19.79,68.23Zm-2.63-.18a.54.54,0,0,0,.5-.29,1.67,1.67,0,0,0,.16-.75,1.32,1.32,0,0,0-.17-.7.51.51,0,0,0-.49-.28.53.53,0,0,0-.5.29,1.6,1.6,0,0,0-.15.74,1.36,1.36,0,0,0,.16.71A.51.51,0,0,0,17.16,68.05Zm0,.18a1.08,1.08,0,0,1-.6-.16,1.15,1.15,0,0,1-.42-.43,1.26,1.26,0,0,1-.14-.57,1.17,1.17,0,0,1,.17-.65,1.2,1.2,0,0,1,.45-.42,1.1,1.1,0,0,1,.54-.15,1.13,1.13,0,0,1,.61.16,1.21,1.21,0,0,1,.41.43,1.21,1.21,0,0,1,0,1.22,1.23,1.23,0,0,1-.45.43A1.21,1.21,0,0,1,17.16,68.23Zm-5.58,0a.09.09,0,0,1-.06,0,.19.19,0,0,1,0-.07s0-.07,0-.08h.09a.3.3,0,0,0,.18,0,.17.17,0,0,0,.07-.1s0-.11,0-.19V66.51c0-.08,0-.15,0-.19a.21.21,0,0,0-.06-.1.31.31,0,0,0-.19,0h-.09a.11.11,0,0,1,0-.09.08.08,0,0,1,0,0,.09.09,0,0,1,.06,0,2.14,2.14,0,0,0,.54-.13l.11,0h0c.05,0,.08,0,.08.1v.31h0l.15-.14a.8.8,0,0,1,.27-.18,1,1,0,0,1,.35-.06.82.82,0,0,1,.42.1.7.7,0,0,1,.26.28h0a1.72,1.72,0,0,1,.37-.28.9.9,0,0,1,.46-.1.69.69,0,0,1,.74.74v1.07a1,1,0,0,0,0,.19.12.12,0,0,0,.06.1.31.31,0,0,0,.19,0h.09a.13.13,0,0,1,0,.08.19.19,0,0,1,0,.07.09.09,0,0,1-.06,0l-.52,0-.52,0a.06.06,0,0,1-.06,0,.1.1,0,0,1,0-.07s0-.07,0-.08h.09a.31.31,0,0,0,.19,0,.21.21,0,0,0,.06-.1,1,1,0,0,0,0-.19V66.6a.44.44,0,0,0-.14-.35.48.48,0,0,0-.34-.13.6.6,0,0,0-.37.11.66.66,0,0,0-.21.24v1.32a.25.25,0,0,0,.05.16.31.31,0,0,0,.19,0h.09s0,0,0,.08a.19.19,0,0,1,0,.07.09.09,0,0,1-.06,0l-.51,0-.5,0a.06.06,0,0,1-.06,0,.1.1,0,0,1,0-.07s0-.07,0-.08h.09c.11,0,.18,0,.21-.07a.25.25,0,0,0,0-.15V66.6a.44.44,0,0,0-.14-.35.48.48,0,0,0-.33-.13.63.63,0,0,0-.38.11.66.66,0,0,0-.21.24v1.19a1,1,0,0,0,0,.19.17.17,0,0,0,.07.1.26.26,0,0,0,.18,0h.09a.22.22,0,0,1,0,.08.19.19,0,0,1,0,.07.09.09,0,0,1-.06,0l-.53,0ZM10,68.05a.54.54,0,0,0,.5-.29,1.67,1.67,0,0,0,.16-.75,1.32,1.32,0,0,0-.17-.7A.51.51,0,0,0,10,66a.53.53,0,0,0-.5.29,1.6,1.6,0,0,0-.15.74,1.36,1.36,0,0,0,.16.71A.51.51,0,0,0,10,68.05Zm0,.18a1.08,1.08,0,0,1-.6-.16A1.15,1.15,0,0,1,9,67.64a1.26,1.26,0,0,1-.14-.57A1.17,1.17,0,0,1,9,66.42,1.2,1.2,0,0,1,9.45,66a1.1,1.1,0,0,1,.54-.15,1.13,1.13,0,0,1,.61.16,1.21,1.21,0,0,1,.41.43,1.21,1.21,0,0,1,0,1.22,1.23,1.23,0,0,1-.45.43A1.21,1.21,0,0,1,10,68.23Zm-2.73,0a1.46,1.46,0,0,1-.78-.2,1.42,1.42,0,0,1-.56-.58,1.75,1.75,0,0,1-.21-.87,1.92,1.92,0,0,1,.2-.89,1.38,1.38,0,0,1,.57-.6,1.75,1.75,0,0,1,.87-.21,1.7,1.7,0,0,1,.76.17.58.58,0,0,1,.34.53.6.6,0,0,1-.14.39.48.48,0,0,1-.37.15.41.41,0,0,1-.16,0,.24.24,0,0,1-.09-.08s0,0,0-.07l.07,0a.51.51,0,0,0,.12-.13.31.31,0,0,0,.06-.19.44.44,0,0,0-.16-.36.6.6,0,0,0-.42-.13.94.94,0,0,0-.54.17,1.11,1.11,0,0,0-.37.51,2.08,2.08,0,0,0-.13.79,1.76,1.76,0,0,0,.14.73,1.3,1.3,0,0,0,.4.52,1,1,0,0,0,.6.19,1,1,0,0,0,.46-.11,1.14,1.14,0,0,0,.35-.37.07.07,0,0,1,.07,0l.09,0a.14.14,0,0,1,.08.11s0,0,0,0a2,2,0,0,1-.36.36,1,1,0,0,1-.36.17A2.31,2.31,0,0,1,7.26,68.27Zm-2.4,1.07c-.18,0-.27-.19-.27-.58a4.21,4.21,0,0,1,0-.46c0-.19,0-.36.06-.53,0-.36.06-.61.06-.76a.05.05,0,0,1,0-.05l.08,0,.08,0S5,67,5,67a6.09,6.09,0,0,0,.07.76c0,.17,0,.34,0,.53a4.21,4.21,0,0,1,0,.46C5.13,69.15,5,69.34,4.86,69.34Zm0-2.86a.33.33,0,0,1-.23-.09.31.31,0,0,1-.09-.22.3.3,0,0,1,.09-.23.32.32,0,0,1,.24-.09.29.29,0,0,1,.22.09.3.3,0,0,1,.09.23.31.31,0,0,1-.09.22A.32.32,0,0,1,4.86,66.48Z"/><path class="cls-6" d="M81.16,68.23a1.25,1.25,0,0,1-.65-.14.42.42,0,0,1-.25-.39.32.32,0,0,1,.09-.24.28.28,0,0,1,.22-.09.27.27,0,0,1,.15,0s.06,0,.06.07l-.06.06a.24.24,0,0,0-.06.17.28.28,0,0,0,.14.24.74.74,0,0,0,.4.09.65.65,0,0,0,.37-.1.38.38,0,0,0,.13-.29.3.3,0,0,0-.08-.21.57.57,0,0,0-.18-.12l-.32-.11a2.3,2.3,0,0,1-.4-.14.58.58,0,0,1-.26-.21.57.57,0,0,1-.11-.36.52.52,0,0,1,.13-.36.82.82,0,0,1,.34-.23,1.21,1.21,0,0,1,.43-.07,1.08,1.08,0,0,1,.52.12.4.4,0,0,1,.21.35.31.31,0,0,1-.08.23.26.26,0,0,1-.22.1.24.24,0,0,1-.14-.05s-.06,0-.06-.07l0,0a.27.27,0,0,0,.07-.08.2.2,0,0,0,0-.11.24.24,0,0,0-.13-.21.56.56,0,0,0-.3-.08.63.63,0,0,0-.33.09.28.28,0,0,0-.14.24.39.39,0,0,0,.06.23.52.52,0,0,0,.18.13l.38.13a3.21,3.21,0,0,1,.41.16.59.59,0,0,1,.24.2.51.51,0,0,1,.09.32.63.63,0,0,1-.12.37.78.78,0,0,1-.33.26,1.19,1.19,0,0,1-.47.09m-2.87,0a.73.73,0,0,1-.54-.2.72.72,0,0,1-.2-.54v-.93a1,1,0,0,0,0-.19.15.15,0,0,0-.06-.1.31.31,0,0,0-.19,0H77.2a.11.11,0,0,1,0-.09.08.08,0,0,1,0-.05l.06,0a2.38,2.38,0,0,0,.54-.13l.12,0h0c.06,0,.08,0,.08.1v1.51a.45.45,0,0,0,.15.36.5.5,0,0,0,.33.12.65.65,0,0,0,.4-.12.53.53,0,0,0,.22-.23V66.37a.17.17,0,0,0-.07-.1.28.28,0,0,0-.18,0h-.09a.11.11,0,0,1,0-.09s0,0,0-.05a.09.09,0,0,1,.06,0,2.38,2.38,0,0,0,.54-.13l.11,0h0s.08,0,.08.1V67.7c0,.19.13.29.39.29.06,0,.09,0,.09.1s0,.07-.09.08l-.8.06s0,0,0,0a.19.19,0,0,1,0-.08v-.28h0l-.23.21a1,1,0,0,1-.23.12A.9.9,0,0,1,78.29,68.23Zm-2,0a.58.58,0,0,1-.42-.18.74.74,0,0,1-.17-.52V66.09h-.29l0,0a.14.14,0,0,1,0-.07.08.08,0,0,1,0-.07.05.05,0,0,1,0,0,.69.69,0,0,0,.27-.11.53.53,0,0,0,.14-.17,2.63,2.63,0,0,0,.11-.29.11.11,0,0,1,.11-.06.08.08,0,0,1,.07,0s0,0,0,0l0,.57.59,0h0s.06,0,.06.1a.34.34,0,0,1,0,.1s0,.05,0,.05l-.56,0v1.52a.61.61,0,0,0,.07.28.25.25,0,0,0,.22.11A.61.61,0,0,0,76.7,68l.08,0a.05.05,0,0,1,0,0s0,0,0,.07,0,0,0,0,0,0,0,0a1.62,1.62,0,0,1-.27.13A1.42,1.42,0,0,1,76.27,68.26ZM73.1,66.78q.25,0,.27-.21a.59.59,0,0,0-.13-.39.43.43,0,0,0-.35-.16.51.51,0,0,0-.42.21,1,1,0,0,0-.19.55Zm-.16,1.45a1.14,1.14,0,0,1-.63-.16,1,1,0,0,1-.4-.43,1.4,1.4,0,0,1-.14-.61,1.26,1.26,0,0,1,.14-.57A1.1,1.1,0,0,1,72.3,66a1,1,0,0,1,.59-.17.92.92,0,0,1,.68.23.94.94,0,0,1,.28.61.24.24,0,0,1-.09.22.48.48,0,0,1-.26.06H72.28a1.25,1.25,0,0,0,.2.74.66.66,0,0,0,.59.27.7.7,0,0,0,.37-.09,1,1,0,0,0,.28-.31l0,0a.08.08,0,0,1,.06,0,.09.09,0,0,1,0,.09.07.07,0,0,1,0,0,1.21,1.21,0,0,1-.39.39A1.08,1.08,0,0,1,72.94,68.23ZM70.09,68a.67.67,0,0,0,.3-.06,1,1,0,0,0,.23-.19V66.41a.61.61,0,0,0-.18-.26.56.56,0,0,0-.36-.12.55.55,0,0,0-.35.12.75.75,0,0,0-.25.36,1.51,1.51,0,0,0-.09.55,1.16,1.16,0,0,0,.18.66A.61.61,0,0,0,70.09,68Zm-.17.25a1,1,0,0,1-.52-.15,1,1,0,0,1-.38-.42,1.29,1.29,0,0,1-.15-.62,1.23,1.23,0,0,1,.15-.59,1.18,1.18,0,0,1,.42-.44,1.07,1.07,0,0,1,.59-.16,1.15,1.15,0,0,1,.31,0,.79.79,0,0,1,.27.1h0V65a.17.17,0,0,0-.07-.1.28.28,0,0,0-.18-.05h-.09a.11.11,0,0,1,0-.09s0,0,0,0a.09.09,0,0,1,.06,0,2.38,2.38,0,0,0,.54-.13l.11,0h0s.08,0,.08.1v3.08q0,.3.39.3s.08,0,.08.08,0,.07-.08.08l-.8.06a.05.05,0,0,1,0,0v-.28h0a1,1,0,0,1-.31.22A1,1,0,0,1,69.92,68.23Zm-3.35-1.45q.25,0,.27-.21a.65.65,0,0,0-.12-.39.45.45,0,0,0-.36-.16.51.51,0,0,0-.42.21.9.9,0,0,0-.18.55Zm-.15,1.45a1.19,1.19,0,0,1-.64-.16,1,1,0,0,1-.4-.43,1.39,1.39,0,0,1-.13-.61,1.15,1.15,0,0,1,.14-.57,1.1,1.1,0,0,1,.39-.44,1,1,0,0,1,.58-.17.93.93,0,0,1,.69.23.89.89,0,0,1,.27.61.24.24,0,0,1-.09.22A.45.45,0,0,1,67,67H65.76a1.25,1.25,0,0,0,.19.74.79.79,0,0,0,1,.18,1,1,0,0,0,.29-.31.05.05,0,0,1,0,0l.06,0a.11.11,0,0,1,0,.09.43.43,0,0,1,0,0,1.45,1.45,0,0,1-.39.39A1.08,1.08,0,0,1,66.42,68.23Zm-2.46,0a1,1,0,0,1-.8-.32,1.29,1.29,0,0,1-.29-.87,1.35,1.35,0,0,1,.17-.61,1.21,1.21,0,0,1,.42-.42,1.24,1.24,0,0,1,1.14,0,.4.4,0,0,1,.23.4.44.44,0,0,1-.09.27.29.29,0,0,1-.25.12.3.3,0,0,1-.16-.05s-.07-.06-.07-.09l0,0a.39.39,0,0,0,.08-.1.2.2,0,0,0,0-.13.29.29,0,0,0-.11-.24A.51.51,0,0,0,64,66a.53.53,0,0,0-.52.29,1.58,1.58,0,0,0-.14.7,1.22,1.22,0,0,0,.19.69.6.6,0,0,0,.51.27.75.75,0,0,0,.37-.09.91.91,0,0,0,.27-.28.05.05,0,0,1,0,0l.06,0,0,0a.11.11,0,0,1,0,.05.06.06,0,0,1,0,0,1.35,1.35,0,0,1-.41.38A1,1,0,0,1,64,68.23Zm-4,0a.07.07,0,0,1-.06,0,.19.19,0,0,1,0-.07s0-.07,0-.08H60a.28.28,0,0,0,.18,0,.17.17,0,0,0,.07-.1V66.32a.17.17,0,0,0-.07-.1.28.28,0,0,0-.18,0h-.09a.11.11,0,0,1,0-.09s0,0,0,0a.09.09,0,0,1,.06,0,2.16,2.16,0,0,0,.53-.13l.12,0h0c.06,0,.08,0,.08.1v.31h0a1.69,1.69,0,0,1,.23-.2.89.89,0,0,1,.24-.13,1,1,0,0,1,.33-.05.73.73,0,0,1,.54.2.72.72,0,0,1,.2.54v1.07c0,.08,0,.15,0,.19a.17.17,0,0,0,.07.1.28.28,0,0,0,.18,0h.09s0,0,0,.08a.19.19,0,0,1,0,.07.09.09,0,0,1-.06,0l-.53,0-.52,0a.05.05,0,0,1-.05,0,.11.11,0,0,1,0-.07.16.16,0,0,1,0-.08h.09a.28.28,0,0,0,.18,0,.17.17,0,0,0,.07-.1s0-.11,0-.19V66.6a.41.41,0,0,0-.15-.35.46.46,0,0,0-.33-.13.65.65,0,0,0-.4.12.59.59,0,0,0-.22.23v1.19a1,1,0,0,0,0,.19.15.15,0,0,0,.06.1A.31.31,0,0,0,61,68H61a.13.13,0,0,1,0,.08.1.1,0,0,1,0,.07.06.06,0,0,1-.06,0l-.52,0ZM58.21,68a.69.69,0,0,0,.32-.08.84.84,0,0,0,.23-.23.73.73,0,0,0,.08-.33V67a2,2,0,0,0-.74.17.46.46,0,0,0-.21.42C57.89,67.85,58,68,58.21,68Zm-.16.27a.64.64,0,0,1-.48-.17.52.52,0,0,1-.19-.42.54.54,0,0,1,.21-.47,1.07,1.07,0,0,1,.5-.21,6.42,6.42,0,0,1,.75-.07v-.4a.44.44,0,0,0-.51-.5.36.36,0,0,0-.27.1.3.3,0,0,0-.12.25.29.29,0,0,0,0,.14.6.6,0,0,0,.08.08l0,0s0,.05-.06.08a.25.25,0,0,1-.15,0,.3.3,0,0,1-.24-.11.41.41,0,0,1-.09-.26A.42.42,0,0,1,57.8,66a1.19,1.19,0,0,1,.56-.12A1.36,1.36,0,0,1,59,66a.63.63,0,0,1,.25.58v1.16a.48.48,0,0,0,.07.2.2.2,0,0,0,.19.1h.06a.1.1,0,0,1,0,.07s0,.07-.09.09l-.19,0a.49.49,0,0,1-.33-.11.42.42,0,0,1-.17-.29.67.67,0,0,1-.32.3A1,1,0,0,1,58.05,68.23Zm-1.92,0a1,1,0,0,1-.8-.32A1.29,1.29,0,0,1,55,67a1.35,1.35,0,0,1,.17-.61,1.21,1.21,0,0,1,.42-.42,1.24,1.24,0,0,1,1.14,0,.4.4,0,0,1,.23.4.44.44,0,0,1-.09.27.29.29,0,0,1-.25.12.3.3,0,0,1-.16-.05s-.07-.06-.07-.09l0,0a.39.39,0,0,0,.08-.1.2.2,0,0,0,0-.13.29.29,0,0,0-.11-.24.51.51,0,0,0-.28-.08.53.53,0,0,0-.52.29,1.58,1.58,0,0,0-.14.7,1.22,1.22,0,0,0,.19.69.6.6,0,0,0,.51.27.75.75,0,0,0,.37-.09.91.91,0,0,0,.27-.28.05.05,0,0,1,0,0l.06,0,0,0a.11.11,0,0,1,0,.05.06.06,0,0,1,0,0,1.35,1.35,0,0,1-.41.38A1,1,0,0,1,56.13,68.23Zm-2.49,0a.07.07,0,0,1-.06,0,.19.19,0,0,1,0-.07s0-.07,0-.08h.08a.31.31,0,0,0,.19,0,.15.15,0,0,0,.06-.1,1,1,0,0,0,0-.19V65a.19.19,0,0,0-.07-.11.28.28,0,0,0-.18,0l-.09,0s0,0,0-.08a.07.07,0,0,1,0-.06.06.06,0,0,1,.06,0,3.06,3.06,0,0,0,.54-.13l.11,0h0s.08,0,.08.09v3a1,1,0,0,0,0,.19.15.15,0,0,0,.06.1.31.31,0,0,0,.19,0h.09a.13.13,0,0,1,0,.08.1.1,0,0,1,0,.07.06.06,0,0,1-.06,0l-.52,0ZM51.94,68a.65.65,0,0,0,.31-.08.65.65,0,0,0,.32-.56V67a2,2,0,0,0-.74.17.45.45,0,0,0-.22.42C51.61,67.85,51.72,68,51.94,68Zm-.16.27a.68.68,0,0,1-.49-.17.61.61,0,0,1,0-.89,1,1,0,0,1,.5-.21,6,6,0,0,1,.75-.07v-.4a.53.53,0,0,0-.12-.37.58.58,0,0,0-.4-.13.39.39,0,0,0-.27.1.33.33,0,0,0-.11.25.21.21,0,0,0,0,.14.3.3,0,0,0,.08.08.12.12,0,0,0,0,0s0,.05-.06.08a.3.3,0,0,1-.16,0,.27.27,0,0,1-.23-.11.41.41,0,0,1-.09-.26.42.42,0,0,1,.23-.39,1.22,1.22,0,0,1,.56-.12,1.3,1.3,0,0,1,.67.15.64.64,0,0,1,.26.58v1.16a.36.36,0,0,0,.06.2.21.21,0,0,0,.2.1h.06s0,0,0,.07,0,.07-.09.09l-.18,0a.51.51,0,0,1-.34-.11.41.41,0,0,1-.16-.29.72.72,0,0,1-.32.3A1.1,1.1,0,0,1,51.78,68.23Zm-3.19,0a.07.07,0,0,1-.06,0,.19.19,0,0,1,0-.07s0-.07,0-.08h.08a.31.31,0,0,0,.19,0,.15.15,0,0,0,.06-.1,1,1,0,0,0,0-.19V65a.19.19,0,0,0-.07-.11.28.28,0,0,0-.18,0l-.09,0s0,0,0-.08a.07.07,0,0,1,0-.06.06.06,0,0,1,.06,0,3.06,3.06,0,0,0,.54-.13l.11,0h0c.05,0,.08,0,.08.09v3a1,1,0,0,0,0,.19.15.15,0,0,0,.06.1.31.31,0,0,0,.19,0h.09a.13.13,0,0,1,0,.08.1.1,0,0,1,0,.07.06.06,0,0,1-.06,0l-.52,0ZM46.89,68a.65.65,0,0,0,.31-.08.65.65,0,0,0,.32-.56V67a2,2,0,0,0-.74.17.45.45,0,0,0-.22.42C46.56,67.85,46.67,68,46.89,68Zm-.16.27a.68.68,0,0,1-.49-.17.61.61,0,0,1,0-.89,1,1,0,0,1,.5-.21,6,6,0,0,1,.75-.07v-.4a.53.53,0,0,0-.12-.37A.58.58,0,0,0,47,66a.39.39,0,0,0-.27.1.33.33,0,0,0-.11.25.21.21,0,0,0,0,.14.3.3,0,0,0,.08.08.12.12,0,0,0,0,0s0,.05-.06.08a.3.3,0,0,1-.16,0,.27.27,0,0,1-.23-.11.41.41,0,0,1-.09-.26.42.42,0,0,1,.23-.39,1.22,1.22,0,0,1,.56-.12,1.3,1.3,0,0,1,.67.15.64.64,0,0,1,.26.58v1.16a.36.36,0,0,0,.06.2.21.21,0,0,0,.2.1h.06s0,0,0,.07,0,.07-.09.09l-.18,0a.51.51,0,0,1-.34-.11.41.41,0,0,1-.16-.29.72.72,0,0,1-.32.3A1.1,1.1,0,0,1,46.73,68.23Z"/><path class="cls-6" d="M98.94,68.23a.32.32,0,0,1-.23-.09.3.3,0,0,1-.09-.23.27.27,0,0,1,.1-.22.29.29,0,0,1,.22-.09.3.3,0,0,1,.23.09.29.29,0,0,1,.09.22.31.31,0,0,1-.32.32m0-1.09-.08,0s0,0,0-.05,0-.4-.06-.76l-.06-.52a4.54,4.54,0,0,1,0-.47c0-.39.09-.58.27-.58s.27.19.27.58c0,.13,0,.28,0,.47l-.06.52c0,.36-.07.61-.07.76a.05.05,0,0,1,0,.05Zm-1.78,1.09a1.28,1.28,0,0,1-.65-.14.44.44,0,0,1-.25-.39.32.32,0,0,1,.09-.24.32.32,0,0,1,.23-.09.24.24,0,0,1,.14,0s.06,0,.06.07l0,.06a.24.24,0,0,0-.06.17.26.26,0,0,0,.14.24.7.7,0,0,0,.39.09.65.65,0,0,0,.37-.1.35.35,0,0,0,.13-.29.3.3,0,0,0-.07-.21.52.52,0,0,0-.19-.12l-.31-.11a2,2,0,0,1-.4-.14.66.66,0,0,1-.27-.21.57.57,0,0,1-.11-.36.57.57,0,0,1,.13-.36.82.82,0,0,1,.34-.23,1.31,1.31,0,0,1,.44-.07,1,1,0,0,1,.51.12.39.39,0,0,1,.22.35.36.36,0,0,1-.08.23.27.27,0,0,1-.22.1.24.24,0,0,1-.14-.05s-.07,0-.07-.07a.12.12,0,0,0,0,0,.6.6,0,0,0,.08-.08.2.2,0,0,0,0-.11.26.26,0,0,0-.14-.21A.55.55,0,0,0,97.2,66a.58.58,0,0,0-.33.09.27.27,0,0,0-.15.24.39.39,0,0,0,.06.23.52.52,0,0,0,.18.13l.38.13a3.46,3.46,0,0,1,.42.16.59.59,0,0,1,.24.2.58.58,0,0,1,.08.32.63.63,0,0,1-.12.37.78.78,0,0,1-.33.26A1.16,1.16,0,0,1,97.16,68.23Zm-2.46-.18a.53.53,0,0,0,.5-.29,1.54,1.54,0,0,0,.16-.75,1.42,1.42,0,0,0-.16-.7.58.58,0,0,0-1,0,1.6,1.6,0,0,0-.15.74,1.36,1.36,0,0,0,.16.71A.52.52,0,0,0,94.7,68.05Zm0,.18a1.12,1.12,0,0,1-.6-.16,1.06,1.06,0,0,1-.41-.43,1.16,1.16,0,0,1-.15-.57,1.26,1.26,0,0,1,.17-.65,1.2,1.2,0,0,1,.45-.42,1.1,1.1,0,0,1,.54-.15,1.12,1.12,0,0,1,1,.59,1.21,1.21,0,0,1,0,1.22,1.23,1.23,0,0,1-.45.43A1.21,1.21,0,0,1,94.7,68.23Zm-4.1,0a.05.05,0,0,1,0,0,.11.11,0,0,1,0-.07.16.16,0,0,1,0-.08h.09a.31.31,0,0,0,.19,0,.12.12,0,0,0,.06-.1,1,1,0,0,0,0-.19V66.51a1,1,0,0,0,0-.19.12.12,0,0,0-.06-.1.31.31,0,0,0-.19,0h-.09a.11.11,0,0,1,0-.09.08.08,0,0,1,0,0l.06,0a2.14,2.14,0,0,0,.54-.13l.11,0h0s.08,0,.08.1v.31h0a2.49,2.49,0,0,1,.24-.2,1,1,0,0,1,.23-.13,1.16,1.16,0,0,1,.34-.05.73.73,0,0,1,.54.2.77.77,0,0,1,.2.54v1.07a1,1,0,0,0,0,.19A.21.21,0,0,0,93,68a.31.31,0,0,0,.19,0h.09a.13.13,0,0,1,0,.08.1.1,0,0,1,0,.07.06.06,0,0,1-.06,0l-.52,0-.52,0a.09.09,0,0,1-.06,0,.19.19,0,0,1,0-.07s0-.07,0-.08h.08a.31.31,0,0,0,.19,0,.12.12,0,0,0,.06-.1,1,1,0,0,0,0-.19V66.6a.41.41,0,0,0-.14-.35.48.48,0,0,0-.34-.13.65.65,0,0,0-.39.12.63.63,0,0,0-.23.23v1.19c0,.08,0,.15,0,.19a.17.17,0,0,0,.07.1.3.3,0,0,0,.18,0h.09s0,0,0,.08a.19.19,0,0,1,0,.07.06.06,0,0,1-.06,0l-.53,0ZM88.88,68a.65.65,0,0,0,.31-.08.65.65,0,0,0,.32-.56V67a2,2,0,0,0-.74.17.47.47,0,0,0-.22.42C88.55,67.85,88.66,68,88.88,68Zm-.16.27a.68.68,0,0,1-.49-.17.61.61,0,0,1,0-.89,1.07,1.07,0,0,1,.5-.21,6,6,0,0,1,.75-.07v-.4a.53.53,0,0,0-.12-.37A.58.58,0,0,0,89,66a.39.39,0,0,0-.27.1.33.33,0,0,0-.11.25.21.21,0,0,0,0,.14.3.3,0,0,0,.08.08.12.12,0,0,0,0,0s0,.05-.06.08a.3.3,0,0,1-.16,0,.27.27,0,0,1-.23-.11.41.41,0,0,1-.09-.26.42.42,0,0,1,.23-.39,1.22,1.22,0,0,1,.56-.12,1.3,1.3,0,0,1,.67.15.64.64,0,0,1,.26.58v1.16a.36.36,0,0,0,.06.2.21.21,0,0,0,.2.1h.06s0,0,0,.07,0,.07-.09.09l-.18,0a.51.51,0,0,1-.34-.11.41.41,0,0,1-.16-.29.72.72,0,0,1-.32.3A1.07,1.07,0,0,1,88.72,68.23Zm-5.07,0a.09.09,0,0,1-.06,0,.19.19,0,0,1,0-.07s0-.07,0-.08h.08a.31.31,0,0,0,.19,0,.12.12,0,0,0,.06-.1,1,1,0,0,0,0-.19V66.32a.17.17,0,0,0-.07-.1.26.26,0,0,0-.18,0H83.6a.11.11,0,0,1,0-.09.08.08,0,0,1,0,0,.09.09,0,0,1,.06,0,2,2,0,0,0,.53-.13l.12,0h0c.06,0,.08,0,.08.1v.31h0l.15-.14a.8.8,0,0,1,.27-.18,1,1,0,0,1,.35-.06.76.76,0,0,1,.41.1.59.59,0,0,1,.26.28h0a1.75,1.75,0,0,1,.38-.28.86.86,0,0,1,.45-.1.73.73,0,0,1,.54.2.72.72,0,0,1,.2.54v1.07c0,.08,0,.15,0,.19a.17.17,0,0,0,.07.1.3.3,0,0,0,.18,0h.09s0,0,0,.08a.19.19,0,0,1,0,.07.09.09,0,0,1-.06,0l-.53,0-.52,0a.09.09,0,0,1-.06,0,.19.19,0,0,1,0-.07.16.16,0,0,1,0-.08h.09a.26.26,0,0,0,.18,0,.17.17,0,0,0,.07-.1,1,1,0,0,0,0-.19V66.6a.41.41,0,0,0-.15-.35.44.44,0,0,0-.33-.13.66.66,0,0,0-.38.11.73.73,0,0,0-.2.24v1.32A.18.18,0,0,0,86,68a.31.31,0,0,0,.19,0h.09a.13.13,0,0,1,0,.08.1.1,0,0,1,0,.07.06.06,0,0,1-.06,0l-.51,0-.5,0a.09.09,0,0,1-.06,0,.19.19,0,0,1,0-.07.16.16,0,0,1,0-.08h.09c.11,0,.18,0,.2-.07a.26.26,0,0,0,0-.15V66.6a.44.44,0,0,0-.14-.35.48.48,0,0,0-.34-.13.62.62,0,0,0-.37.11.66.66,0,0,0-.21.24v1.19a1,1,0,0,0,0,.19.21.21,0,0,0,.06.1.31.31,0,0,0,.19,0h.09a.13.13,0,0,1,0,.08.1.1,0,0,1,0,.07.06.06,0,0,1-.06,0l-.52,0Z"/></g></g></svg>