<svg xmlns="http://www.w3.org/2000/svg" viewBox="0 0 168.61 146.02"><defs><style>.cls-1{fill:none;}.cls-2,.cls-3{fill:#f49221;}.cls-3{stroke:#fedd59;stroke-miterlimit:10;stroke-width:4px;}.cls-4{fill:#fff;}</style></defs><g id="Capa_2" data-name="Capa 2"><g id="Capa_1-2" data-name="Capa 1"><rect class="cls-1" x="107.82" y="129.15" width="49" height="8"/><rect class="cls-1" x="86.82" y="86.15" width="12" height="6"/><path class="cls-2" d="M56.32,137.65c2,5,5,14,17.5,3.5l-7-14S54.32,132.65,56.32,137.65Z"/><path class="cls-2" d="M158.75,95.64c-6.86-1.34-1.25-8.54-5.21-12.27-13.61-20.47-24.66-41.73-47.22-31.72a34.28,34.28,0,0,1,23,21c-13,7-5,14-5,14l-52,38,6,12,54-38c.28,8.73,12.68-1,12,9C135.63,135,186.75,103.3,158.75,95.64ZM144.6,82.84c-2.78,4.5-7-4.71-8.71-6.26-2.17-2.3,1.07-6.87,3.34-3.82C140,74.57,145.65,80.65,144.6,82.84Z"/><polygon class="cls-2" points="65.32 119.65 69.32 119.65 69.32 76.65 68.11 76.65 65.32 79.08 65.32 119.65"/><polygon class="cls-2" points="65.32 79.08 65.32 76.65 68.11 76.65 113.33 37.29 146.5 65.55 146.5 60.29 141.5 56.03 141.5 57.29 137.5 57.29 137.5 52.62 113.3 32.01 58 80.14 60.63 83.16 65.32 79.08"/><polygon class="cls-2" points="147.37 66.29 166.02 82.17 168.62 79.13 159.5 71.36 159.5 72.29 155.5 72.29 155.5 67.96 150.5 63.7 150.5 66.29 147.37 66.29"/><polygon class="cls-2" points="65.32 79.08 68.11 76.65 65.32 76.65 65.32 79.08"/><polygon class="cls-2" points="159.5 49.15 155.5 49.15 155.5 67.96 159.5 71.36 159.5 49.15"/><polygon class="cls-2" points="159.5 72.29 159.5 71.36 155.5 67.96 155.5 72.29 159.5 72.29"/><polygon class="cls-2" points="150.5 43.15 146.5 43.15 146.5 60.29 150.5 63.7 150.5 43.15"/><polygon class="cls-2" points="146.5 66.29 147.37 66.29 146.5 65.55 146.5 66.29"/><polygon class="cls-2" points="147.37 66.29 150.5 66.29 150.5 63.7 146.5 60.29 146.5 65.55 147.37 66.29"/><polygon class="cls-2" points="141.5 34.15 137.5 34.15 137.5 52.62 141.5 56.03 141.5 34.15"/><polygon class="cls-2" points="141.5 57.29 141.5 56.03 137.5 52.62 137.5 57.29 141.5 57.29"/><polygon class="cls-2" points="156.82 125.15 157.82 125.15 157.82 129.15 156.82 129.15 156.82 137.15 107.82 137.15 107.82 139.15 103.82 139.15 103.82 137.15 85.82 137.15 85.82 141.15 160.82 141.15 160.82 119.15 156.82 119.15 156.82 125.15"/><polygon class="cls-2" points="107.82 129.15 156.82 129.15 156.82 125.15 103.82 125.15 103.82 137.15 107.82 137.15 107.82 129.15"/><rect class="cls-2" x="156.82" y="125.15" width="1" height="4"/><rect class="cls-2" x="103.82" y="137.15" width="4" height="2"/><path class="cls-2" d="M100.82,84.15h-16v10h16Zm-2,8h-12v-6h12Z"/><polygon class="cls-2" points="79.82 112.15 81.82 112.15 81.82 101.15 98.82 101.15 98.82 99.15 79.82 99.15 79.82 112.15"/><path class="cls-3" d="M51,26.15c-.55,32.21-48.45,32.2-49,0C2.55-6,50.45-6,51,26.15Z"/><path class="cls-4" d="M33.19,19.7a6.16,6.16,0,0,1-.74,3.08,6.06,6.06,0,0,1-2,2.13,9.15,9.15,0,0,1-2.82,1.21v.1a8.23,8.23,0,0,1,4.7,1.9A5.31,5.31,0,0,1,34,32.17a7.49,7.49,0,0,1-1.1,4A7.35,7.35,0,0,1,29.46,39a14.5,14.5,0,0,1-5.88,1,21.56,21.56,0,0,1-4-.35,16.07,16.07,0,0,1-3.45-1V34a15.14,15.14,0,0,0,3.46,1.28A14.49,14.49,0,0,0,23,35.7c1.94,0,3.3-.34,4.08-1a3.56,3.56,0,0,0,1.17-2.84A3,3,0,0,0,27.71,30a3.53,3.53,0,0,0-1.89-1.13,14.66,14.66,0,0,0-3.76-.38H20.11V24.36h2a11.09,11.09,0,0,0,3.61-.45,3,3,0,0,0,1.69-1.23,3.49,3.49,0,0,0,.45-1.78A2.75,2.75,0,0,0,27,18.75,4.14,4.14,0,0,0,24.19,18a7.49,7.49,0,0,0-2.24.31,9.74,9.74,0,0,0-1.82.74,15.79,15.79,0,0,0-1.42.83l-2.52-3.74a14,14,0,0,1,3.54-1.81,14.58,14.58,0,0,1,4.85-.72,10.89,10.89,0,0,1,6.29,1.6A5.15,5.15,0,0,1,33.19,19.7Z"/></g></g></svg>